<svg width="18" height="19" viewBox="0 0 18 19" fill="none" xmlns="http://www.w3.org/2000/svg">
<path d="M1.125 15.1008C0.862665 15.1008 0.65 15.3135 0.65 15.5758C0.65 15.8381 0.862664 16.0508 1.125 16.0508H16.875C17.1373 16.0508 17.35 15.8381 17.35 15.5758C17.35 15.3135 17.1373 15.1008 16.875 15.1008H1.125ZM1.125 4.60081C0.862665 4.60081 0.65 4.81347 0.65 5.07581C0.65 5.33814 0.862664 5.55081 1.125 5.55081H16.875C17.1373 5.55081 17.35 5.33814 17.35 5.07581C17.35 4.81347 17.1373 4.60081 16.875 4.60081H1.125ZM1.125 9.85081C0.862665 9.85081 0.65 10.0635 0.65 10.3258C0.65 10.5881 0.862664 10.8008 1.125 10.8008H16.875C17.1373 10.8008 17.35 10.5881 17.35 10.3258C17.35 10.0635 17.1373 9.85081 16.875 9.85081H1.125Z" fill="#1354FC" stroke="#1354FC" stroke-width="0.2"/>
</svg>
