<svg width="18" height="19" viewBox="0 0 18 19" fill="none" xmlns="http://www.w3.org/2000/svg">
<path d="M2.20217 17.3508H7.32148C7.35549 17.7852 7.54202 18.1904 7.84433 18.4865C8.14664 18.7827 8.54282 18.9483 8.95481 18.9508H9.06068C9.47267 18.9483 9.86885 18.7827 10.1712 18.4865C10.4735 18.1904 10.66 17.7852 10.694 17.3508H15.8133C16.051 17.3498 16.2828 17.2729 16.4785 17.1302C16.6741 16.9874 16.8245 16.7855 16.9098 16.5508C16.9995 16.3214 17.023 16.0691 16.9772 15.8256C16.9314 15.5821 16.8185 15.3584 16.6527 15.1828L16.509 15.0308C15.9852 14.4793 15.5698 13.8235 15.2869 13.1013C15.004 12.379 14.8591 11.6046 14.8605 10.8228V7.97481C14.8578 6.43708 14.3143 4.95545 13.3359 3.81829C12.3575 2.68113 11.0141 1.96982 9.56732 1.82281V1.55081C9.56732 1.39168 9.50756 1.23906 9.40121 1.12654C9.29485 1.01402 9.1506 0.950806 9.00018 0.950806C8.84977 0.950806 8.70552 1.01402 8.59916 1.12654C8.4928 1.23906 8.43305 1.39168 8.43305 1.55081V1.82281C6.98622 1.96982 5.64286 2.68113 4.66444 3.81829C3.68603 4.95545 3.14256 6.43708 3.13983 7.97481V10.8468C3.14131 11.6286 2.9964 12.403 2.71347 13.1253C2.43053 13.8475 2.01517 14.5033 1.49137 15.0548L1.3477 15.2068C1.18077 15.3834 1.0674 15.6087 1.02208 15.8538C0.976762 16.0989 1.00154 16.3527 1.09327 16.5829C1.18499 16.813 1.33948 17.009 1.537 17.1458C1.73453 17.2826 1.96612 17.354 2.20217 17.3508ZM9.05312 17.7508H8.94725C8.83534 17.7498 8.72679 17.7102 8.63809 17.638C8.54938 17.5658 8.48536 17.465 8.45574 17.3508H9.54463C9.51537 17.4637 9.45248 17.5636 9.3653 17.6356C9.27811 17.7077 9.17128 17.7481 9.06068 17.7508H9.05312ZM2.3156 15.9028C2.94577 15.2408 3.4454 14.4529 3.78549 13.585C4.12559 12.7171 4.29938 11.7864 4.29678 10.8468V7.97481C4.29678 6.65297 4.79311 5.38527 5.67659 4.45059C6.56007 3.5159 7.75832 2.99081 9.00775 2.99081C10.2572 2.99081 11.4554 3.5159 12.3389 4.45059C13.2224 5.38527 13.7187 6.65297 13.7187 7.97481V10.8468C13.7157 11.7864 13.8893 12.7173 14.2294 13.5853C14.5695 14.4533 15.0694 15.241 15.6999 15.9028L15.8436 16.0548L15.8058 16.1508H2.20217V16.0548L2.3156 15.9028Z" fill="#1354FC"/>
</svg>
