<svg width="18" height="19" viewBox="0 0 18 19" fill="none" xmlns="http://www.w3.org/2000/svg">
<path d="M16 4.45081C16 4.72695 15.7761 4.95081 15.5 4.95081C15.2239 4.95081 15 4.72695 15 4.45081C15 4.17466 15.2239 3.95081 15.5 3.95081C15.7761 3.95081 16 4.17466 16 4.45081Z" fill="#1354FC"/>
<path d="M13.5 4.95081C13.7761 4.95081 14 4.72695 14 4.45081C14 4.17466 13.7761 3.95081 13.5 3.95081C13.2239 3.95081 13 4.17466 13 4.45081C13 4.72695 13.2239 4.95081 13.5 4.95081Z" fill="#1354FC"/>
<path d="M12 4.45081C12 4.72695 11.7761 4.95081 11.5 4.95081C11.2239 4.95081 11 4.72695 11 4.45081C11 4.17466 11.2239 3.95081 11.5 3.95081C11.7761 3.95081 12 4.17466 12 4.45081Z" fill="#1354FC"/>
<path d="M3.61765 9.95081H9.38235C9.54616 9.95081 9.70326 9.89813 9.8191 9.80436C9.93493 9.71059 10 9.58341 10 9.45081C10 9.3182 9.93493 9.19102 9.8191 9.09725C9.70326 9.00348 9.54616 8.95081 9.38235 8.95081H3.61765C3.45384 8.95081 3.29674 9.00348 3.1809 9.09725C3.06507 9.19102 3 9.3182 3 9.45081C3 9.58341 3.06507 9.71059 3.1809 9.80436C3.29674 9.89813 3.45384 9.95081 3.61765 9.95081Z" fill="#1354FC"/>
<path d="M3.58065 12.9508H14.4194C14.5734 12.9508 14.721 13.0035 14.8299 13.0973C14.9388 13.191 15 13.3182 15 13.4508C15 13.5834 14.9388 13.7106 14.8299 13.8044C14.721 13.8981 14.5734 13.9508 14.4194 13.9508H3.58065C3.42665 13.9508 3.27896 13.8981 3.17007 13.8044C3.06117 13.7106 3 13.5834 3 13.4508C3 13.3182 3.06117 13.191 3.17007 13.0973C3.27896 13.0035 3.42665 12.9508 3.58065 12.9508Z" fill="#1354FC"/>
<path fill-rule="evenodd" clip-rule="evenodd" d="M2.12651 1.95081H15.8735C16.4375 1.95081 16.9784 2.17038 17.3772 2.56123C17.776 2.95207 18 3.48217 18 4.03491V15.8667C18 16.4194 17.776 16.9495 17.3772 17.3404C16.9784 17.7312 16.4375 17.9508 15.8735 17.9508H2.12651C1.56253 17.9508 1.02164 17.7312 0.622841 17.3404C0.224043 16.9495 0 16.4194 0 15.8667V4.03491C0 3.48217 0.224043 2.95207 0.622841 2.56123C1.02164 2.17038 1.56253 1.95081 2.12651 1.95081ZM15.8735 3.18157H2.12651C2.01091 3.17694 1.89558 3.19585 1.7878 3.23709C1.68002 3.27834 1.58214 3.34103 1.50033 3.42121C1.41852 3.50139 1.35455 3.59733 1.31246 3.70295C1.27038 3.80858 1.25109 3.92161 1.25581 4.03491V5.9385H16.7107V4.00209C16.7107 3.78447 16.6225 3.57577 16.4655 3.4219C16.3085 3.26802 16.0955 3.18157 15.8735 3.18157ZM2.12651 16.72H15.8735C15.9918 16.7295 16.1108 16.7141 16.2226 16.675C16.3344 16.6359 16.4365 16.5739 16.522 16.4932C16.6075 16.4125 16.6745 16.315 16.7186 16.2069C16.7627 16.0989 16.7828 15.9829 16.7777 15.8667V7.16927H1.2893V15.8995C1.2893 16.1171 1.37751 16.3258 1.53452 16.4797C1.69152 16.6336 1.90447 16.72 2.12651 16.72Z" fill="#1354FC"/>
</svg>
