<svg width="18" height="19" viewBox="0 0 18 19" fill="none" xmlns="http://www.w3.org/2000/svg">
<path d="M18 4.01882C17.9957 3.47026 17.7752 2.94553 17.3866 2.5584C16.9979 2.17128 16.4723 1.95297 15.9237 1.95081H2.07629C1.52772 1.95297 1.00211 2.17128 0.613433 2.5584C0.224758 2.94553 0.00434952 3.47026 0 4.01882V15.5997C0.00434952 16.1483 0.224758 16.673 0.613433 17.0601C1.00211 17.4473 1.52772 17.6656 2.07629 17.6677H15.9237C16.4723 17.6656 16.9979 17.4473 17.3866 17.0601C17.7752 16.673 17.9957 16.1483 18 15.5997V4.01882ZM2.07629 3.19161H15.9237C16.1431 3.19161 16.3535 3.27877 16.5086 3.4339C16.6638 3.58903 16.7509 3.79943 16.7509 4.01882V5.67323H1.24081V4.01882C1.2408 3.90949 1.26247 3.80124 1.30456 3.70034C1.34665 3.59944 1.40832 3.50788 1.48601 3.43095C1.5637 3.35403 1.65587 3.29327 1.75719 3.25219C1.85851 3.21111 1.96696 3.19052 2.07629 3.19161ZM1.24908 15.5997V6.91404H3.77206V16.4269H2.11765C2.00491 16.4337 1.89199 16.4173 1.78583 16.3788C1.67967 16.3403 1.58252 16.2804 1.50037 16.2029C1.41822 16.1254 1.35281 16.0319 1.30817 15.9282C1.26353 15.8244 1.24061 15.7126 1.24081 15.5997H1.24908ZM15.932 16.4269H5.01287V6.91404H16.7592V15.5997C16.7592 15.709 16.7375 15.8173 16.6954 15.9182C16.6534 16.0191 16.5917 16.1107 16.514 16.1876C16.4363 16.2645 16.3441 16.3253 16.2428 16.3663C16.1415 16.4074 16.033 16.428 15.9237 16.4269H15.932Z" fill="#1354FC"/>
</svg>
