<svg width="18" height="19" viewBox="0 0 18 19" fill="none" xmlns="http://www.w3.org/2000/svg">
<path d="M16.2 3.35081H13.8V1.55081C13.8 1.22081 13.53 0.950806 13.2 0.950806C12.87 0.950806 12.6 1.22081 12.6 1.55081V3.35081H5.4V1.55081C5.4 1.22081 5.13 0.950806 4.8 0.950806C4.47 0.950806 4.2 1.22081 4.2 1.55081V3.35081H1.8C0.80625 3.35081 0 4.15706 0 5.15081V17.1508C0 18.1446 0.80625 18.9508 1.8 18.9508H16.2C17.1938 18.9508 18 18.1446 18 17.1508V5.15081C18 4.15706 17.1938 3.35081 16.2 3.35081ZM1.8 4.55081H4.2V6.35081C4.2 6.68081 4.47 6.95081 4.8 6.95081C5.13 6.95081 5.4 6.68081 5.4 6.35081V4.55081H12.6V6.35081C12.6 6.68081 12.87 6.95081 13.2 6.95081C13.53 6.95081 13.8 6.68081 13.8 6.35081V4.55081H16.2C16.53 4.55081 16.8 4.82081 16.8 5.15081V8.15081H1.2V5.15081C1.2 4.82081 1.47 4.55081 1.8 4.55081ZM1.2 9.35081H4.2V12.9508H1.2V9.35081ZM5.4 9.35081H8.4V12.9508H5.4V9.35081ZM8.4 14.1508V17.7508H5.4V14.1508H8.4ZM9.6 14.1508H12.6V17.7508H9.6V14.1508ZM9.6 12.9508V9.35081H12.6V12.9508H9.6ZM13.8 9.35081H16.8V12.9508H13.8V9.35081ZM1.2 17.1508V14.1508H4.2V17.7508H1.8C1.47 17.7508 1.2 17.4808 1.2 17.1508ZM16.2 17.7508H13.8V14.1508H16.8V17.1508C16.8 17.4808 16.53 17.7508 16.2 17.7508Z" fill="#1354FC"/>
</svg>
