<svg width="18" height="19" viewBox="0 0 18 19" fill="none" xmlns="http://www.w3.org/2000/svg">
<path fill-rule="evenodd" clip-rule="evenodd" d="M6.81244 6.67689C7.45996 6.24424 8.22124 6.01331 9 6.01331C10.0439 6.0145 11.0448 6.42972 11.7829 7.16789C12.5211 7.90605 12.9363 8.90688 12.9375 9.95081C12.9375 10.7296 12.7066 11.4908 12.2739 12.1384C11.8413 12.7859 11.2263 13.2906 10.5068 13.5886C9.78733 13.8866 8.99563 13.9646 8.23183 13.8126C7.46803 13.6607 6.76644 13.2857 6.21577 12.735C5.6651 12.1844 5.29009 11.4828 5.13816 10.719C4.98623 9.95517 5.06421 9.16347 5.36223 8.44399C5.66025 7.72451 6.16493 7.10955 6.81244 6.67689ZM7.43746 12.2893C7.89997 12.5984 8.44374 12.7633 9 12.7633C9.74565 12.7624 10.4605 12.4658 10.9878 11.9386C11.515 11.4113 11.8116 10.6965 11.8125 9.95081C11.8125 9.39455 11.6475 8.85078 11.3385 8.38826C11.0295 7.92575 10.5902 7.56527 10.0763 7.35239C9.56238 7.13952 8.99688 7.08383 8.45131 7.19235C7.90574 7.30087 7.4046 7.56873 7.01126 7.96207C6.61793 8.3554 6.35006 8.85654 6.24154 9.40211C6.13302 9.94769 6.18872 10.5132 6.40159 11.0271C6.61446 11.541 6.97495 11.9803 7.43746 12.2893Z" fill="#1354FC"/>
<path fill-rule="evenodd" clip-rule="evenodd" d="M15.7163 7.70081H15.7882C16.2255 7.70125 16.6448 7.87516 16.954 8.18435C17.2631 8.49355 17.4371 8.91278 17.4375 9.35006V10.5516C17.4371 10.9888 17.2631 11.4081 16.954 11.7173C16.6448 12.0265 16.2255 12.2004 15.7882 12.2008H15.7163C15.6128 12.2012 15.5118 12.2325 15.4263 12.2906C15.3407 12.3487 15.2744 12.431 15.2359 12.5271C15.1928 12.6233 15.1798 12.7303 15.1983 12.8342C15.2169 12.938 15.2662 13.0338 15.3399 13.1092L15.3911 13.1604C15.6997 13.4702 15.8729 13.8896 15.8729 14.3268C15.8729 14.764 15.6997 15.1834 15.3911 15.4931L14.5412 16.3419C14.2317 16.6507 13.8123 16.8242 13.3751 16.8242C12.9379 16.8242 12.5186 16.6507 12.2091 16.3419L12.1579 16.2907C12.0825 16.2191 11.988 16.1709 11.8857 16.152C11.7835 16.133 11.678 16.144 11.5819 16.1838C11.4859 16.2236 11.4034 16.2903 11.3445 16.376C11.2856 16.4617 11.2527 16.5626 11.25 16.6665V16.7391C11.2496 17.1763 11.0757 17.5956 10.7665 17.9048C10.4573 18.214 10.038 18.3879 9.60075 18.3883H8.39925C8.18226 18.3885 7.96736 18.3458 7.76686 18.2629C7.56635 18.1799 7.38417 18.0582 7.23074 17.9048C7.0773 17.7513 6.95561 17.5691 6.87264 17.3686C6.78967 17.1681 6.74704 16.9532 6.74719 16.7362V16.6637C6.74687 16.5604 6.7157 16.4595 6.65767 16.374C6.59965 16.2885 6.51741 16.2223 6.4215 16.1839C6.3252 16.1409 6.21822 16.1279 6.11441 16.1464C6.01061 16.165 5.91477 16.2143 5.83931 16.2879L5.78813 16.3391C5.47867 16.6482 5.05917 16.8219 4.62178 16.8219C4.18439 16.8219 3.76489 16.6482 3.45544 16.3391L2.60606 15.4903C2.2975 15.1806 2.12425 14.7612 2.12425 14.324C2.12425 13.8868 2.2975 13.4674 2.60606 13.1576L2.65725 13.1064C2.73025 13.0336 2.77993 12.9407 2.79996 12.8395C2.82 12.7383 2.80948 12.6335 2.76975 12.5383C2.73201 12.4397 2.66547 12.3548 2.57878 12.2946C2.49209 12.2344 2.38929 12.2017 2.28375 12.2008H2.21175C1.77448 12.2004 1.35525 12.0265 1.04605 11.7173C0.73685 11.4081 0.562947 10.9888 0.5625 10.5516V9.35006C0.562947 8.91278 0.73685 8.49355 1.04605 8.18435C1.35525 7.87516 1.77448 7.70125 2.21175 7.70081H2.28375C2.38713 7.70045 2.48806 7.66927 2.57363 7.61126C2.6592 7.55324 2.72552 7.47102 2.76413 7.37512C2.80715 7.27883 2.82023 7.17183 2.80168 7.06801C2.78312 6.96419 2.73378 6.86835 2.66006 6.79293L2.60888 6.74174C2.30031 6.432 2.12707 6.01261 2.12707 5.5754C2.12707 5.13819 2.30031 4.7188 2.60888 4.40906L3.46162 3.55968C3.77113 3.25088 4.19048 3.07746 4.62769 3.07746C5.06489 3.07746 5.48425 3.25088 5.79375 3.55968L5.84212 3.61087C5.91751 3.68246 6.01204 3.73067 6.11426 3.74965C6.21648 3.76863 6.32202 3.75757 6.41808 3.71781C6.51415 3.67806 6.59663 3.6113 6.65554 3.52563C6.71445 3.43996 6.74726 3.33905 6.75 3.23512V3.16256C6.75045 2.72528 6.92435 2.30605 7.23355 1.99685C7.54275 1.68766 7.96198 1.51375 8.39925 1.51331H9.60075C10.038 1.51375 10.4573 1.68766 10.7665 1.99685C11.0757 2.30605 11.2496 2.72528 11.25 3.16256V3.23512C11.2518 3.3398 11.2842 3.44168 11.343 3.52825C11.4019 3.61481 11.4848 3.68231 11.5815 3.72244C11.6782 3.76258 11.7845 3.77362 11.8874 3.7542C11.9903 3.73478 12.0853 3.68574 12.1607 3.61312L12.2119 3.56193C12.5214 3.25313 12.9407 3.07971 13.3779 3.07971C13.8151 3.07971 14.2345 3.25313 14.544 3.56193L15.3939 4.41131C15.7025 4.72105 15.8757 5.14044 15.8757 5.57765C15.8757 6.01486 15.7025 6.43425 15.3939 6.74399L15.3427 6.79518C15.2697 6.86803 15.2201 6.96095 15.2 7.06212C15.18 7.16329 15.1905 7.26813 15.2303 7.36331C15.268 7.46187 15.3345 7.54678 15.4212 7.60698C15.5079 7.66718 15.6107 7.69987 15.7163 7.70081ZM16.1588 10.9221C16.2571 10.8238 16.3124 10.6905 16.3125 10.5516V9.35006C16.3124 9.21106 16.2571 9.0778 16.1588 8.97952C16.0605 8.88124 15.9272 8.82595 15.7882 8.82581H15.7163C15.3898 8.82314 15.0713 8.72442 14.8006 8.54196C14.5298 8.35949 14.3188 8.10137 14.1938 7.79977C14.0688 7.49816 14.0353 7.16643 14.0976 6.84595C14.1599 6.52546 14.3151 6.2304 14.544 5.99756L14.5952 5.94637C14.6934 5.84798 14.7485 5.71467 14.7485 5.57568C14.7485 5.43669 14.6934 5.30338 14.5952 5.20499L13.7458 4.35506C13.6475 4.25675 13.5142 4.20152 13.3751 4.20152C13.2361 4.20152 13.1028 4.25675 13.0044 4.35506L12.9532 4.40624C12.7205 4.63504 12.4255 4.79026 12.1051 4.85258C11.7847 4.91489 11.4531 4.88153 11.1516 4.75666C10.85 4.6318 10.5919 4.42094 10.4093 4.15037C10.2268 3.8798 10.1279 3.56149 10.125 3.23512V3.16256C10.1249 3.02356 10.0696 2.8903 9.97129 2.79202C9.873 2.69374 9.73974 2.63845 9.60075 2.63831H8.39925C8.26026 2.63845 8.127 2.69374 8.02871 2.79202C7.93043 2.8903 7.87515 3.02356 7.875 3.16256V3.23512C7.87196 3.56149 7.77297 3.87976 7.59035 4.15027C7.40773 4.42079 7.14956 4.6316 6.848 4.75645C6.54644 4.88129 6.2148 4.91466 5.89441 4.85239C5.57402 4.79012 5.27903 4.63496 5.04619 4.40624L4.99556 4.35506C4.89725 4.25675 4.76391 4.20152 4.62488 4.20152C4.48584 4.20152 4.3525 4.25675 4.25419 4.35506L3.40481 5.20499C3.30664 5.30338 3.25151 5.43669 3.25151 5.57568C3.25151 5.71467 3.30664 5.84798 3.40481 5.94637L3.45544 5.99756C3.68426 6.23036 3.8395 6.52537 3.90179 6.84581C3.96409 7.16625 3.93068 7.49793 3.80575 7.79951C3.68081 8.10109 3.46986 8.35922 3.19921 8.54173C2.92856 8.72423 2.61017 8.82303 2.28375 8.82581H2.21175C2.07276 8.82595 1.9395 8.88124 1.84121 8.97952C1.74293 9.0778 1.68765 9.21106 1.6875 9.35006V10.5516C1.68765 10.6905 1.74293 10.8238 1.84121 10.9221C1.9395 11.0204 2.07276 11.0757 2.21175 11.0758H2.28375C2.61034 11.0784 2.92894 11.1771 3.19979 11.3595C3.47064 11.542 3.68176 11.8002 3.80679 12.102C3.93182 12.4037 3.96523 12.7355 3.90284 13.0561C3.84046 13.3767 3.68505 13.6718 3.456 13.9046L3.40481 13.9558C3.30661 14.0543 3.25146 14.1877 3.25146 14.3268C3.25146 14.4659 3.30661 14.5993 3.40481 14.6977L4.25419 15.5466C4.35265 15.6446 4.48593 15.6996 4.62488 15.6996C4.76382 15.6996 4.8971 15.6446 4.99556 15.5466L5.04675 15.4954C5.27902 15.2652 5.57407 15.1088 5.8949 15.0458C6.21573 14.9827 6.54804 15.0158 6.85014 15.1409C7.15223 15.266 7.41066 15.4775 7.59298 15.7489C7.77531 16.0203 7.87342 16.3395 7.875 16.6665V16.7391C7.87515 16.878 7.93043 17.0113 8.02871 17.1096C8.127 17.2079 8.26026 17.2632 8.39925 17.2633H9.60075C9.73974 17.2632 9.873 17.2079 9.97129 17.1096C10.0696 17.0113 10.1249 16.878 10.125 16.7391V16.6665C10.128 16.3402 10.227 16.022 10.4095 15.7515C10.5921 15.481 10.8502 15.2702 11.1516 15.1453C11.4531 15.0204 11.7847 14.987 12.105 15.0491C12.4254 15.1112 12.7203 15.2662 12.9532 15.4948L13.0039 15.546C13.1022 15.6443 13.2355 15.6995 13.3746 15.6995C13.5136 15.6995 13.6469 15.6443 13.7453 15.546L14.5952 14.6972C14.6934 14.5987 14.7485 14.4653 14.7485 14.3262C14.7485 14.1871 14.6934 14.0537 14.5952 13.9552L14.5446 13.9041C14.3157 13.6712 14.1605 13.3762 14.0982 13.0558C14.0359 12.7354 14.0693 12.4037 14.1943 12.1021C14.3192 11.8005 14.5301 11.5424 14.8008 11.3599C15.0714 11.1774 15.3898 11.0786 15.7163 11.0758H15.7882C15.9272 11.0757 16.0605 11.0204 16.1588 10.9221Z" fill="#1354FC"/>
</svg>
