<svg width="18" height="19" viewBox="0 0 18 19" fill="none" xmlns="http://www.w3.org/2000/svg">
<path d="M7.875 1.95081H1.625C1.27979 1.95081 1 2.23059 1 2.5758V8.82579C1 9.17101 1.27979 9.45079 1.625 9.45079H7.875C8.22021 9.45079 8.5 9.17101 8.5 8.82579V2.5758C8.5 2.23059 8.22021 1.95081 7.875 1.95081ZM7.25 8.20079H2.25V3.2008H7.25V8.20079ZM16.6143 10.4984C16.3807 10.4016 16.1118 10.4551 15.9331 10.6338L9.68311 16.8838C9.50427 17.0626 9.45081 17.3314 9.54761 17.5649C9.64441 17.7986 9.87219 17.9508 10.125 17.9508H16.375C16.7202 17.9508 17 17.671 17 17.3258V11.0758C17 10.823 16.8478 10.5951 16.6143 10.4984ZM15.75 16.7008H11.6339L15.75 12.5847V16.7008ZM13.25 9.45079C15.3177 9.45079 17 7.76854 17 5.7008C17 3.63305 15.3177 1.95081 13.25 1.95081C11.1823 1.95081 9.5 3.63305 9.5 5.7008C9.5 7.76854 11.1823 9.45079 13.25 9.45079ZM13.25 3.2008C14.6285 3.2008 15.75 4.32226 15.75 5.7008C15.75 7.07934 14.6285 8.20079 13.25 8.20079C11.8715 8.20079 10.75 7.07934 10.75 5.7008C10.75 4.32226 11.8715 3.2008 13.25 3.2008ZM8.31689 11.5178L5.63391 14.2008L8.31689 16.8838C8.56104 17.1279 8.56104 17.5237 8.31689 17.7677C8.07288 18.0117 7.67712 18.0118 7.43311 17.7677L4.75 15.0847L2.06689 17.7678C1.82288 18.0118 1.42712 18.0118 1.18311 17.7678C0.938965 17.5237 0.938965 17.1279 1.18311 16.8839L3.86609 14.2008L1.18311 11.5178C0.938965 11.2737 0.938965 10.8779 1.18311 10.6339C1.42712 10.3898 1.82288 10.3898 2.06689 10.6339L4.75 13.3169L7.43311 10.6338C7.67712 10.3898 8.07288 10.3898 8.31689 10.6338C8.56104 10.8779 8.56104 11.2737 8.31689 11.5178Z" fill="#1354FC"/>
</svg>
