<svg width="18" height="19" viewBox="0 0 18 19" fill="none" xmlns="http://www.w3.org/2000/svg">
<path d="M15.8986 15.602C16.4559 15.602 16.9904 15.3806 17.3845 14.9865C17.7786 14.5924 18 14.0579 18 13.5006V3.0522C18 2.49488 17.7786 1.96038 17.3845 1.56629C16.9904 1.1722 16.4559 0.950806 15.8986 0.950806H2.1014C1.54475 0.95301 1.01153 1.17511 0.61792 1.56873C0.224309 1.96234 0.00220456 2.49556 0 3.0522V13.5006C0 14.0579 0.221396 14.5924 0.615484 14.9865C1.00957 15.3806 1.54407 15.602 2.1014 15.602H6.84837L6.39628 17.695H5.65116C5.3181 17.695 5.02326 17.9898 5.02326 18.3229C5.02326 18.656 5.3181 18.9508 5.65116 18.9508H12.3488C12.6819 18.9508 12.9767 18.656 12.9767 18.3229C12.9767 17.9898 12.6819 17.695 12.3488 17.695H11.587L11.0595 15.602H15.8986ZM2.1014 2.20662H15.8986C16.1206 2.20662 16.3336 2.29483 16.4906 2.45183C16.6476 2.60884 16.7358 2.82179 16.7358 3.04383V10.8717H1.25581V3.0522C1.25358 2.82949 1.3435 2.60928 1.50098 2.45179C1.65847 2.2943 1.87869 2.20438 2.1014 2.20662ZM1.26419 13.5006V12.1359H16.7526V13.5006C16.7526 13.7226 16.6644 13.9356 16.5073 14.0926C16.3503 14.2496 16.1374 14.3378 15.9153 14.3378H2.1014C1.8801 14.34 1.66124 14.2513 1.50398 14.0955C1.34672 13.9398 1.2558 13.7219 1.25581 13.5006H1.26419ZM10.2977 17.6866H7.68558L8.13767 15.5936H9.76186L10.2977 17.6866Z" fill="#0049FF"/>
</svg>
