<svg width="18" height="19" viewBox="0 0 18 19" fill="none" xmlns="http://www.w3.org/2000/svg">
<path d="M11.3837 1.5176C11.2151 1.34959 11.0149 1.21668 10.7946 1.12657C10.5743 1.03645 10.3383 0.990918 10.1003 0.992599H4.37533C3.88977 0.994791 3.42473 1.18865 3.08139 1.53199C2.73804 1.87533 2.54418 2.34038 2.54199 2.82593V17.0759C2.54418 17.5615 2.73804 18.0265 3.08139 18.3699C3.42473 18.7132 3.88977 18.9071 4.37533 18.9093H13.6253C14.1109 18.9071 14.5759 18.7132 14.9193 18.3699C15.2626 18.0265 15.4565 17.5615 15.4587 17.0759V6.2426C15.4504 5.75688 15.2531 5.29352 14.9087 4.95093L11.3837 1.5176ZM13.3087 5.1426H11.292V3.17593L13.3087 5.1426ZM13.6253 17.6426H4.37533C4.22129 17.6404 4.07416 17.5783 3.96523 17.4694C3.8563 17.3604 3.79415 17.2133 3.79199 17.0593V2.82593C3.79415 2.67189 3.8563 2.52477 3.96523 2.41584C4.07416 2.3069 4.22129 2.24475 4.37533 2.2426H10.042V5.1176C10.0442 5.4595 10.181 5.78677 10.4227 6.02853C10.6645 6.27029 10.9918 6.40708 11.3337 6.40927H14.2087V17.0759C14.2065 17.23 14.1444 17.3771 14.0354 17.486C13.9265 17.595 13.7794 17.6571 13.6253 17.6593V17.6426Z" fill="#1354FC"/>
</svg>
