<svg width="18" height="19" viewBox="0 0 18 19" fill="none" xmlns="http://www.w3.org/2000/svg">
<path fill-rule="evenodd" clip-rule="evenodd" d="M10.7946 1.12657C11.0149 1.21668 11.2151 1.34959 11.3837 1.5176L14.9087 4.95093C15.2531 5.29352 15.4504 5.75688 15.4587 6.2426V17.0759C15.4565 17.5615 15.2626 18.0265 14.9193 18.3699C14.5759 18.7132 14.1109 18.9071 13.6253 18.9093H4.37533C3.88977 18.9071 3.42473 18.7132 3.08139 18.3699C2.73804 18.0265 2.54418 17.5615 2.54199 17.0759V2.82593C2.54418 2.34038 2.73804 1.87533 3.08139 1.53199C3.42473 1.18865 3.88977 0.994791 4.37533 0.992599H10.1003C10.3383 0.990918 10.5743 1.03645 10.7946 1.12657ZM11.292 5.1426H13.3087L11.292 3.17593V5.1426ZM4.37533 17.6426H13.6253V17.6593C13.7794 17.6571 13.9265 17.595 14.0354 17.486C14.1444 17.3771 14.2065 17.23 14.2087 17.0759V6.40927H11.3337C10.9918 6.40708 10.6645 6.27029 10.4227 6.02853C10.181 5.78677 10.0442 5.4595 10.042 5.1176V2.2426H4.37533C4.22129 2.24475 4.07416 2.3069 3.96523 2.41584C3.8563 2.52477 3.79415 2.67189 3.79199 2.82593V17.0593C3.79415 17.2133 3.8563 17.3604 3.96523 17.4694C4.07416 17.5783 4.22129 17.6404 4.37533 17.6426ZM5.40001 7.95081H12.6C12.8208 7.95081 13 8.17481 13 8.45081C13 8.7268 12.8208 8.95081 12.6 8.95081H5.40001C5.17921 8.95081 5 8.7268 5 8.45081C5 8.17481 5.17921 7.95081 5.40001 7.95081ZM12.6 10.9508H5.40001C5.17921 10.9508 5 11.1748 5 11.4508C5 11.7268 5.17921 11.9508 5.40001 11.9508H12.6C12.8208 11.9508 13 11.7268 13 11.4508C13 11.1748 12.8208 10.9508 12.6 10.9508ZM5.40001 13.9508H12.6C12.8208 13.9508 13 14.1748 13 14.4508C13 14.7268 12.8208 14.9508 12.6 14.9508H5.40001C5.17921 14.9508 5 14.7268 5 14.4508C5 14.1748 5.17921 13.9508 5.40001 13.9508Z" fill="#1354FC"/>
</svg>
