<svg width="18" height="19" viewBox="0 0 18 19" fill="none" xmlns="http://www.w3.org/2000/svg">
<path d="M12 12.2008H14C14.1989 12.2008 14.3897 12.2798 14.5303 12.4205C14.671 12.5611 14.75 12.7519 14.75 12.9508C14.75 13.1497 14.671 13.3405 14.5303 13.4811C14.3897 13.6218 14.1989 13.7008 14 13.7008H12C11.8011 13.7008 11.6103 13.6218 11.4697 13.4811C11.329 13.3405 11.25 13.1497 11.25 12.9508C11.25 12.7519 11.329 12.5611 11.4697 12.4205C11.6103 12.2798 11.8011 12.2008 12 12.2008Z" fill="#1354FC"/>
<path fill-rule="evenodd" clip-rule="evenodd" d="M9 5.20681H15.9324C16.4808 5.20681 17.0067 5.42173 17.3944 5.80431C17.7822 6.18688 18 6.70576 18 7.24681V14.9108C18 15.1787 17.9465 15.444 17.8426 15.6915C17.7387 15.939 17.5864 16.1639 17.3944 16.3533C17.2024 16.5427 16.9745 16.693 16.7237 16.7955C16.4728 16.898 16.2039 16.9508 15.9324 16.9508H2.06757C1.79605 16.9508 1.52719 16.898 1.27634 16.7955C1.02549 16.693 0.797568 16.5427 0.605577 16.3533C0.413585 16.1639 0.261289 15.939 0.157384 15.6915C0.0534792 15.444 0 15.1787 0 14.9108V4.99081C0 4.44976 0.217832 3.93088 0.605577 3.54831C0.993321 3.16573 1.51921 2.95081 2.06757 2.95081H5.92703C6.26429 2.95177 6.5961 3.03477 6.8931 3.19245C7.19009 3.35013 7.4431 3.57763 7.62973 3.85481L8.29459 4.83881C8.37004 4.95495 8.47464 5.04987 8.59824 5.11435C8.72184 5.17883 8.86024 5.21068 9 5.20681ZM16.7309 15.2389C16.7716 15.1344 16.7896 15.0226 16.7838 14.9108L16.7676 7.20681C16.7677 7.0983 16.7455 6.99089 16.7022 6.89113C16.659 6.79137 16.5956 6.70133 16.5159 6.62649C16.4363 6.55166 16.3421 6.49359 16.239 6.45583C16.1359 6.41806 16.0261 6.40138 15.9162 6.40681H9C8.66288 6.40514 8.33132 6.32184 8.03444 6.16422C7.73756 6.0066 7.48444 5.77948 7.2973 5.50281L6.64054 4.56681C6.56538 4.44799 6.45991 4.35073 6.3347 4.28474C6.20949 4.21876 6.06891 4.18637 5.92703 4.19081H2.06757C1.95773 4.18538 1.84792 4.20206 1.74482 4.23983C1.64172 4.27759 1.54748 4.33566 1.46785 4.41049C1.38821 4.48533 1.32483 4.57537 1.28157 4.67513C1.23832 4.77489 1.21608 4.8823 1.21622 4.99081V14.9108C1.21039 15.0226 1.22843 15.1344 1.26915 15.2389C1.30987 15.3435 1.37238 15.4384 1.45263 15.5175C1.53288 15.5967 1.62908 15.6584 1.735 15.6986C1.84093 15.7388 1.95423 15.7566 2.06757 15.7508H15.9324C16.0458 15.7566 16.1591 15.7388 16.265 15.6986C16.3709 15.6584 16.4671 15.5967 16.5474 15.5175C16.6276 15.4384 16.6901 15.3435 16.7309 15.2389Z" fill="#1354FC"/>
</svg>
