<svg width="18" height="19" viewBox="0 0 18 19" fill="none" xmlns="http://www.w3.org/2000/svg">
<path d="M3.5 14.9508C3.77614 14.9508 4 14.7269 4 14.4508C4 14.1747 3.77614 13.9508 3.5 13.9508C3.22386 13.9508 3 14.1747 3 14.4508C3 14.7269 3.22386 14.9508 3.5 14.9508Z" fill="#1354FC"/>
<path d="M5 14.4508C5.00207 14.5829 5.06595 14.7091 5.17803 14.8024C5.2901 14.8958 5.44151 14.9491 5.6 14.9508H14.4C14.5591 14.9508 14.7117 14.8981 14.8243 14.8044C14.9368 14.7106 15 14.5834 15 14.4508C15 14.3182 14.9368 14.191 14.8243 14.0973C14.7117 14.0035 14.5591 13.9508 14.4 13.9508H5.6C5.44151 13.9525 5.2901 14.0058 5.17803 14.0992C5.06595 14.1926 5.00207 14.3187 5 14.4508Z" fill="#1354FC"/>
<path d="M14.4 5.95081H5.6C5.44087 5.95081 5.28826 6.00348 5.17574 6.09725C5.06321 6.19102 5 6.3182 5 6.45081C5 6.58341 5.06321 6.71059 5.17574 6.80436C5.28826 6.89813 5.44087 6.95081 5.6 6.95081H14.4C14.5591 6.95081 14.7117 6.89813 14.8243 6.80436C14.9368 6.71059 15 6.58341 15 6.45081C15 6.3182 14.9368 6.19102 14.8243 6.09725C14.7117 6.00348 14.5591 5.95081 14.4 5.95081Z" fill="#1354FC"/>
<path d="M4 6.45081C4 6.72695 3.77614 6.95081 3.5 6.95081C3.22386 6.95081 3 6.72695 3 6.45081C3 6.17466 3.22386 5.95081 3.5 5.95081C3.77614 5.95081 4 6.17466 4 6.45081Z" fill="#1354FC"/>
<path fill-rule="evenodd" clip-rule="evenodd" d="M1.76651 2.95081H16.2335C16.7013 2.95291 17.1494 3.13143 17.4802 3.44753C17.811 3.76364 17.9978 4.19177 18 4.63881V7.26281C17.9978 7.70984 17.811 8.13797 17.4802 8.45408C17.1494 8.77018 16.7013 8.9487 16.2335 8.95081H14.6512V10.9508H16.2335C16.7013 10.9529 17.1494 11.1314 17.4802 11.4475C17.811 11.7636 17.9978 12.1918 18 12.6388V15.2628C17.9978 15.7098 17.811 16.138 17.4802 16.4541C17.1494 16.7702 16.7013 16.9487 16.2335 16.9508H1.76651C1.29868 16.9487 0.850641 16.7702 0.519832 16.4541C0.189023 16.138 0.00220159 15.7098 0 15.2628V12.6388C0.00220159 12.1918 0.189023 11.7636 0.519832 11.4475C0.850641 11.1314 1.29868 10.9529 1.76651 10.9508H3.34884V8.95081H1.76651C1.29868 8.9487 0.850641 8.77018 0.519832 8.45408C0.189023 8.13797 0.00220159 7.70984 0 7.26281V4.63881C0.00220159 4.19177 0.189023 3.76364 0.519832 3.44753C0.850641 3.13143 1.29868 2.95291 1.76651 2.95081ZM16.5946 15.6079C16.6904 15.5164 16.7442 15.3922 16.7442 15.2628V12.6388C16.7442 12.5094 16.6904 12.3853 16.5946 12.2937C16.4988 12.2022 16.3689 12.1508 16.2335 12.1508H1.76651C1.63107 12.1508 1.50117 12.2022 1.40539 12.2937C1.30962 12.3853 1.25581 12.5094 1.25581 12.6388V15.2628C1.25581 15.3922 1.30962 15.5164 1.40539 15.6079C1.50117 15.6994 1.63107 15.7508 1.76651 15.7508H16.2335C16.3689 15.7508 16.4988 15.6994 16.5946 15.6079ZM4.60465 10.9508H13.3953V8.95081H4.60465V10.9508ZM16.5946 7.60787C16.6904 7.51636 16.7442 7.39223 16.7442 7.26281V4.63881C16.7442 4.50938 16.6904 4.38526 16.5946 4.29374C16.4988 4.20222 16.3689 4.15081 16.2335 4.15081H1.76651C1.63107 4.15081 1.50117 4.20222 1.40539 4.29374C1.30962 4.38526 1.25581 4.50938 1.25581 4.63881V7.26281C1.25581 7.39223 1.30962 7.51636 1.40539 7.60787C1.50117 7.69939 1.63107 7.75081 1.76651 7.75081H16.2335C16.3689 7.75081 16.4988 7.69939 16.5946 7.60787Z" fill="#1354FC"/>
</svg>
