<svg width="18" height="19" viewBox="0 0 18 19" fill="none" xmlns="http://www.w3.org/2000/svg">
<path fill-rule="evenodd" clip-rule="evenodd" d="M17.4375 10.2306C17.2935 10.2306 17.1496 10.1757 17.0398 10.0658L16.5938 9.61978V16.7706C16.5938 17.6623 15.8683 18.3878 14.9766 18.3878H3.02344C2.13173 18.3878 1.40625 17.6623 1.40625 16.7706V9.61984L0.960249 10.0658C0.740593 10.2855 0.384425 10.2855 0.164769 10.0658C-0.0549229 9.84618 -0.0549229 9.49001 0.164769 9.27036L7.16044 2.27466C8.17477 1.26033 9.82525 1.26033 10.8395 2.27466L17.8352 9.27032C18.0549 9.49001 18.0549 9.84614 17.8352 10.0658C17.7254 10.1757 17.5815 10.2306 17.4375 10.2306ZM2.53125 8.49484V16.7706C2.53125 17.042 2.75203 17.2628 3.02344 17.2628H6.1875V12.833C6.1875 11.8638 6.97605 11.0752 7.94531 11.0752H10.0547C11.0239 11.0752 11.8125 11.8638 11.8125 12.833V17.2628H14.9766C15.248 17.2628 15.4688 17.042 15.4688 16.7706V8.4948L10.0441 3.07018C9.46838 2.49446 8.53164 2.49446 7.95592 3.07018L2.53125 8.49484ZM7.3125 17.2627H10.6875V12.833C10.6875 12.4841 10.4036 12.2002 10.0547 12.2002H7.94531C7.59639 12.2002 7.3125 12.4841 7.3125 12.833V17.2627Z" fill="#1354FC"/>
</svg>
