<svg width="18" height="19" viewBox="0 0 18 19" fill="none" xmlns="http://www.w3.org/2000/svg">
<path fill-rule="evenodd" clip-rule="evenodd" d="M6.75008 6.97392C5.92279 6.97392 5.25 6.30113 5.25 5.47384C5.25 4.64655 5.92279 3.97375 6.75008 3.97375C7.57737 3.97375 8.25002 4.64655 8.25002 5.47384C8.25002 6.30113 7.57737 6.97392 6.75008 6.97392ZM6.75008 5.09878C6.54298 5.09878 6.37502 5.26688 6.37502 5.47384C6.37502 5.6808 6.54298 5.84889 6.75008 5.84889C6.95704 5.84889 7.125 5.6808 7.125 5.47384C7.125 5.26688 6.95704 5.09878 6.75008 5.09878Z" fill="#1354FC"/>
<path fill-rule="evenodd" clip-rule="evenodd" d="M4.68754 13.7241H16.3129C17.2436 13.7241 18.0004 12.9673 18.0004 12.0366V3.4113C18.0004 2.48059 17.2436 1.72375 16.3129 1.72375H4.68754C3.75684 1.72375 3 2.48059 3 3.4113V12.0366C3 12.9673 3.75684 13.7241 4.68754 13.7241ZM4.12503 3.4113C4.12503 3.10079 4.37703 2.84878 4.68754 2.84878H16.3129C16.6234 2.84878 16.8754 3.10079 16.8754 3.4113V9.36311L14.1295 6.1595C13.8783 5.86465 13.5408 5.675 13.1238 5.6982C12.736 5.7004 12.3707 5.87289 12.1217 6.17145L9.33618 9.51508L8.42938 8.60827C7.91713 8.0952 7.08242 8.0952 6.56935 8.60827L4.12503 11.0525V3.4113ZM4.31258 12.4558L7.36436 9.4048C7.45967 9.30949 7.53836 9.30949 7.63367 9.4048L8.9761 10.7474C9.0872 10.859 9.23868 10.9205 9.39922 10.9116C9.55674 10.9049 9.70437 10.8313 9.80572 10.7099L12.9858 6.89217C13.0352 6.83367 13.0976 6.82392 13.1297 6.82392C13.1373 6.82629 13.1463 6.82798 13.1561 6.82985C13.1902 6.83628 13.2353 6.8448 13.2738 6.8908L16.8754 11.0927V12.0366C16.8754 12.3471 16.6234 12.5991 16.3129 12.5991H4.68754C4.54354 12.5991 4.41212 12.5449 4.31258 12.4558Z" fill="#1354FC"/>
<path d="M12.8473 18.1688C12.9907 18.2063 13.1354 18.2242 13.2772 18.2242C14.0249 18.2242 14.7089 17.7239 14.9092 16.9642L15.3067 15.3591C15.381 15.0576 15.1972 14.7532 14.8956 14.6782C14.5942 14.6046 14.2897 14.7876 14.2146 15.0891L13.8187 16.6867C13.7407 16.9829 13.4332 17.1599 13.1354 17.0812L1.54389 13.9768C1.24381 13.8943 1.06459 13.5831 1.14329 13.2817L2.41842 8.39152C2.49711 8.09076 2.31638 7.78327 2.01631 7.70527C1.71486 7.62493 1.40806 7.80717 1.33006 8.10724L0.0550637 12.9966C-0.178951 13.8906 0.354311 14.8161 1.24903 15.0629L12.8473 18.1688Z" fill="#1354FC"/>
</svg>
