<svg width="18" height="19" viewBox="0 0 18 19" fill="none" xmlns="http://www.w3.org/2000/svg">
<path fill-rule="evenodd" clip-rule="evenodd" d="M17.3326 6.47888L10.0623 3.18541C9.72082 3.03079 9.35029 2.95081 8.97544 2.95081C8.6006 2.95081 8.23007 3.03079 7.8886 3.18541L0.618261 6.47888C0.42824 6.56282 0.267792 6.70187 0.157693 6.87803C0.0475946 7.05418 -0.00708461 7.25934 0.000735622 7.46692C0.00818744 7.6758 0.078062 7.87765 0.201343 8.04642C0.324624 8.2152 0.495654 8.34316 0.692364 8.4138L8.10267 11.098C8.68279 11.3067 9.3175 11.3067 9.89761 11.098L17.3079 8.4138C17.5046 8.34316 17.6757 8.2152 17.7989 8.04642C17.9222 7.87765 17.9921 7.6758 17.9996 7.46692C18.0059 7.25313 17.9449 7.04274 17.8253 6.86546C17.7056 6.68818 17.5333 6.55296 17.3326 6.47888ZM8.49789 9.93703L1.56513 7.40929L8.39909 4.29696C8.58035 4.21563 8.77677 4.17359 8.97544 4.17359C9.17411 4.17359 9.37054 4.21563 9.5518 4.29696L16.3858 7.40929L9.453 9.93703C9.14367 10.0443 8.80722 10.0443 8.49789 9.93703Z" fill="#1354FC"/>
<path d="M17.0115 13.7741L9.70002 16.4336C9.23166 16.602 8.71924 16.602 8.25089 16.4336L0.840579 13.7329C0.76435 13.7048 0.68333 13.692 0.602146 13.6952C0.520961 13.6984 0.441201 13.7175 0.367421 13.7516C0.29364 13.7856 0.227283 13.8338 0.172139 13.8935C0.116994 13.9531 0.0741422 14.0231 0.0460294 14.0993C0.0179166 14.1755 0.00509348 14.2566 0.00829219 14.3378C0.0114909 14.4189 0.0306488 14.4987 0.0646721 14.5725C0.0986954 14.6463 0.146918 14.7126 0.206586 14.7678C0.266254 14.8229 0.336199 14.8658 0.412428 14.8939L7.82274 17.5945C8.56303 17.8577 9.3714 17.8577 10.1117 17.5945L17.4232 14.935C17.5728 14.8761 17.6935 14.7612 17.7596 14.6147C17.8258 14.4682 17.8322 14.3016 17.7775 14.1505C17.7228 13.9993 17.6114 13.8754 17.4668 13.8051C17.3222 13.7348 17.1559 13.7237 17.0033 13.7741H17.0115Z" fill="#1354FC"/>
<path d="M9.70002 13.14L17.0115 10.4805H17.0033C17.1559 10.4301 17.3222 10.4413 17.4668 10.5115C17.6114 10.5818 17.7228 10.7057 17.7775 10.8569C17.8322 11.008 17.8258 11.1746 17.7596 11.3211C17.6935 11.4676 17.5728 11.5825 17.4232 11.6415L10.1117 14.3009C9.3714 14.5641 8.56303 14.5641 7.82274 14.3009L0.412428 11.6003C0.336199 11.5722 0.266254 11.5293 0.206586 11.4742C0.146918 11.419 0.0986954 11.3527 0.0646721 11.2789C0.0306488 11.2051 0.0114909 11.1254 0.00829219 11.0442C0.00509348 10.963 0.0179166 10.882 0.0460294 10.8057C0.0741422 10.7295 0.116994 10.6596 0.172139 10.5999C0.227283 10.5402 0.29364 10.492 0.367421 10.458C0.441201 10.424 0.520961 10.4048 0.602146 10.4016C0.68333 10.3984 0.76435 10.4112 0.840579 10.4393L8.25089 13.14C8.71924 13.3084 9.23166 13.3084 9.70002 13.14Z" fill="#1354FC"/>
</svg>
