<svg width="18" height="19" viewBox="0 0 18 19" fill="none" xmlns="http://www.w3.org/2000/svg">
<path fill-rule="evenodd" clip-rule="evenodd" d="M11.2352 11.181C10.7088 11.5328 10.0899 11.7205 9.4568 11.7205C8.60786 11.7205 7.79369 11.3833 7.19339 10.783C6.5931 10.1827 6.25586 9.36849 6.25586 8.51955C6.25586 7.88646 6.44359 7.26759 6.79532 6.7412C7.14704 6.21481 7.64696 5.80453 8.23185 5.56226C8.81675 5.31999 9.46035 5.2566 10.0813 5.38011C10.7022 5.50362 11.2726 5.80848 11.7202 6.25614C12.1679 6.7038 12.4727 7.27415 12.5962 7.89508C12.7197 8.516 12.6564 9.1596 12.4141 9.7445C12.1718 10.3294 11.7615 10.8293 11.2352 11.181ZM10.5238 6.92266C10.208 6.71162 9.83665 6.59898 9.4568 6.59898C8.94744 6.59898 8.45893 6.80133 8.09876 7.1615C7.73858 7.52168 7.53624 8.01018 7.53624 8.51955C7.53624 8.8994 7.64888 9.27072 7.85991 9.58656C8.07094 9.9024 8.3709 10.1486 8.72183 10.2939C9.07277 10.4393 9.45893 10.4773 9.83149 10.4032C10.204 10.3291 10.5463 10.1462 10.8148 9.87759C11.0834 9.609 11.2664 9.26679 11.3405 8.89423C11.4146 8.52168 11.3765 8.13552 11.2312 7.78458C11.0858 7.43364 10.8396 7.13369 10.5238 6.92266Z" fill="#1354FC"/>
<path fill-rule="evenodd" clip-rule="evenodd" d="M8.70263 18.7826C8.46659 18.6718 8.25784 18.5104 8.09123 18.3098L3.74648 13.1883C2.54807 11.7523 1.92779 9.92128 2.0067 8.05259C2.08562 6.1839 2.85807 4.41168 4.17328 3.08185C5.54194 1.74359 7.37171 0.981188 9.28569 0.951694C11.1997 0.922201 13.0521 1.62786 14.4613 2.92331C15.8705 4.21877 16.7293 6.00535 16.8607 7.91504C16.992 9.82473 16.386 11.7121 15.1675 13.1883L10.8227 18.3098C10.6561 18.5104 10.4474 18.6718 10.2113 18.7826C9.97527 18.8934 9.71772 18.9508 9.45697 18.9508C9.19622 18.9508 8.93867 18.8934 8.70263 18.7826ZM9.34162 2.06382C7.73098 2.10886 6.20141 2.78031 5.07808 3.93543C3.98721 5.03681 3.34671 6.5057 3.28198 8.05452C3.21725 9.60334 3.73295 11.1205 4.72811 12.3091L9.06432 17.4306C9.11151 17.4894 9.17129 17.5368 9.23925 17.5694C9.30721 17.602 9.38161 17.6189 9.45697 17.6189C9.53233 17.6189 9.60674 17.602 9.67469 17.5694C9.74265 17.5368 9.80243 17.4894 9.84962 17.4306L14.1858 12.3091C15.2427 11.0929 15.7836 9.51241 15.6934 7.90366C15.6033 6.29492 14.8892 4.78476 13.7031 3.69423C12.517 2.60369 10.9523 2.01877 9.34162 2.06382Z" fill="#1354FC"/>
</svg>
