<svg width="18" height="19" viewBox="0 0 18 19" fill="none" xmlns="http://www.w3.org/2000/svg">
<path fill-rule="evenodd" clip-rule="evenodd" d="M3.83414 7.82788C2.76032 7.82788 1.88672 8.70148 1.88672 9.77531C1.88672 10.8491 2.76032 11.7227 3.83414 11.7227C4.90797 11.7227 5.78157 10.8491 5.78157 9.77531C5.78157 8.70148 4.90797 7.82788 3.83414 7.82788ZM3.83414 10.664C3.34415 10.664 2.94547 10.2653 2.94547 9.77531C2.94547 9.28529 3.34415 8.88664 3.83414 8.88664C4.32413 8.88664 4.72281 9.28529 4.72281 9.77531C4.72281 10.2653 4.32413 10.664 3.83414 10.664Z" fill="#1354FC"/>
<path fill-rule="evenodd" clip-rule="evenodd" d="M7.28332 12.4274C6.20954 12.4274 5.33594 13.301 5.33594 14.3748C5.33594 15.4486 6.20954 16.3222 7.28332 16.3222C8.35714 16.3222 9.23074 15.4486 9.23074 14.3748C9.23074 13.301 8.35714 12.4274 7.28332 12.4274ZM7.28332 15.2634C6.79333 15.2634 6.39469 14.8648 6.39469 14.3748C6.39469 13.8847 6.79333 13.4861 7.28332 13.4861C7.77334 13.4861 8.17199 13.8847 8.17199 14.3748C8.17203 14.8648 7.77334 15.2634 7.28332 15.2634Z" fill="#1354FC"/>
<path fill-rule="evenodd" clip-rule="evenodd" d="M17.5017 12.4004L17.5122 12.4106C18.1624 13.0593 18.1624 14.1098 17.5134 14.7588C16.8643 15.4079 15.8127 15.4062 15.1653 14.7573L15.155 14.7467L11.9255 11.3241C10.5899 11.6626 10.8275 13.6395 12.2414 13.6395C14.1345 13.6395 14.8618 16.1037 13.2798 17.1389C9.90149 19.3503 5.32427 18.9298 2.41939 15.9358C-0.814119 12.603 -0.845919 7.19091 2.56212 3.83436C7.11255 -0.647319 14.7494 1.25489 16.7367 7.25076C17.1583 8.52128 16.6947 9.89468 15.6686 10.6706L17.5017 12.4004ZM12.2414 14.6982C11.6548 14.6982 11.0975 14.4762 10.6722 14.0732C9.56034 13.0195 9.82815 11.2151 11.1471 10.4991L9.90848 9.18647C9.0544 9.36446 8.15285 9.11839 7.5064 8.47201C6.69414 7.65972 6.29235 5.11116 6.17112 3.99986C6.13459 3.66361 6.41888 3.37978 6.75463 3.41634C7.86163 3.53659 10.416 3.94074 11.2268 4.75159C11.8728 5.39758 12.1194 6.29867 11.9414 7.15342L14.8818 9.92821C15.6579 9.44599 16.0279 8.47635 15.7318 7.58401C13.9844 2.31181 7.30829 0.669223 3.31677 4.59541C0.338057 7.52539 0.321222 12.2528 3.17927 15.1986C5.72747 17.825 9.74323 18.1886 12.7 16.2531C13.4057 15.7913 13.0869 14.6982 12.2414 14.6982ZM7.31147 4.55666C7.49966 5.80717 7.85609 7.32442 8.25502 7.72335C8.87062 8.33895 9.86528 8.33631 10.4782 7.72335C11.0925 7.10892 11.0924 6.11447 10.4782 5.50021C10.0793 5.10128 8.56201 4.74481 7.31147 4.55666ZM15.9192 14.0139C16.1539 14.2445 16.5315 14.2435 16.7648 14.0102C16.9984 13.7765 16.9997 13.3996 16.7689 13.1646L11.4824 8.17607C11.3271 8.38515 11.1399 8.57235 10.931 8.72747L15.9192 14.0139Z" fill="#1354FC"/>
</svg>
