<svg width="18" height="19" viewBox="0 0 18 19" fill="none" xmlns="http://www.w3.org/2000/svg">
<path d="M16.5739 4.54737L14.3921 2.36371C13.8424 1.81352 12.886 1.81246 12.3342 2.36477L2.56011 12.2353C2.51678 12.279 2.48552 12.3327 2.46847 12.3917L1.01396 17.487C0.977719 17.6139 1.01324 17.7507 1.10665 17.8442C1.17589 17.9135 1.26858 17.9508 1.36376 17.9508C1.39714 17.9508 1.43089 17.9462 1.46354 17.9369L6.55441 16.4811C6.61335 16.4641 6.66698 16.4328 6.71065 16.3894L16.5739 6.60595C16.8487 6.33087 17 5.96548 17 5.57668C17 5.18787 16.8487 4.82245 16.5739 4.54737ZM10.7496 5.00995L12.0881 6.34849L5.09966 13.337L4.59812 12.3336C4.53631 12.2103 4.41062 12.1326 4.27282 12.1326H3.69048L10.7496 5.00995ZM1.89322 17.0577L2.36688 15.3996L3.55126 16.584L1.89322 17.0577ZM6.09098 15.8584L4.35116 16.3555L2.59539 14.5997L3.0924 12.8598H4.04799L4.67475 14.1134C4.7099 14.1837 4.76707 14.2409 4.8374 14.276L6.09095 14.9028V15.8584H6.09098ZM6.81827 15.2604V14.678C6.81827 14.5403 6.74051 14.4146 6.61727 14.3528L5.61385 13.8512L12.6023 6.86272L13.9408 8.20126L6.81827 15.2604ZM16.0607 6.10028L14.4573 7.68935L11.2614 4.49344L12.8495 2.89113C13.1243 2.61626 13.603 2.61626 13.8779 2.89113L16.0597 5.07295C16.1971 5.21037 16.2727 5.39289 16.2727 5.58714C16.2727 5.78139 16.1971 5.96391 16.0607 6.10028Z" fill="#1354FC" stroke="#1354FC" stroke-width="0.25"/>
</svg>
