<svg width="18" height="19" viewBox="0 0 18 19" fill="none" xmlns="http://www.w3.org/2000/svg">
<path fill-rule="evenodd" clip-rule="evenodd" d="M8.00872 1.25653L2.14802 4.61596C1.43791 5.02391 1 5.77649 1 6.59091V13.3107C1 14.1251 1.43791 14.8782 2.14802 15.2852L8.00872 18.6456C8.71883 19.0526 9.59416 19.0526 10.3043 18.6456L16.1645 15.2852C16.8746 14.8782 17.3125 14.1251 17.3125 13.3107V6.59091C17.3125 5.77649 16.8746 5.02391 16.1645 4.61596L10.3043 1.25653C9.59461 0.848836 8.71927 0.848307 8.00872 1.25653ZM12.7091 14.004L10.8439 12.1512C10.6184 11.9283 10.6184 11.5662 10.8439 11.3433C11.0679 11.1198 11.4325 11.1198 11.6575 11.3433L13.5237 13.196C13.7482 13.419 13.7482 13.781 13.5237 14.004C13.2987 14.2284 12.9341 14.2284 12.7091 14.004ZM7.11177 14.3441C8.31858 14.8307 9.69713 14.8311 10.9039 14.3441C11.1987 14.2249 11.3408 13.8917 11.2208 13.599C11.1013 13.3067 10.7648 13.1651 10.4715 13.2853C9.54092 13.6604 8.47475 13.6604 7.54417 13.2848C5.59032 12.4969 4.60717 10.2064 5.40429 8.25266C6.20277 6.29569 8.51892 5.3405 10.4715 6.12759C11.4357 6.51563 12.2202 7.29511 12.6119 8.25266C12.9895 9.17832 12.9895 10.2336 12.6119 11.1592C12.4919 11.452 12.6345 11.7851 12.9293 11.9033C13.2241 12.023 13.5595 11.8814 13.6785 11.5886C14.1675 10.3891 14.1679 9.02414 13.6785 7.82277C13.1712 6.58061 12.155 5.57138 10.9039 5.06781C9.6961 4.58154 8.31957 4.58154 7.11227 5.06781C5.86448 5.57004 4.84649 6.57692 4.33762 7.82277C3.30446 10.354 4.57865 13.325 7.11177 14.3441Z" fill="#1354FC"/>
</svg>
