<svg width="19" height="19" viewBox="0 0 19 19" fill="none" xmlns="http://www.w3.org/2000/svg">
<path d="M4.08398 9.95078C4.08398 7.10651 6.38972 4.80078 9.23398 4.80078C12.0783 4.80078 14.384 7.10651 14.384 9.95078C14.384 10.6521 14.3839 11.2965 13.8294 12.2396C13.688 12.48 13.3807 12.5419 13.1519 12.4033C12.9458 12.2784 12.7735 12.0827 12.9071 11.8267C13.2028 11.2601 13.3697 10.6222 13.3697 9.95078C13.3697 7.66669 11.5181 5.81507 9.23398 5.81507C6.94989 5.81507 5.09827 7.66669 5.09827 9.95078C5.09827 12.2349 6.94989 14.0865 9.23398 14.0865C9.86053 14.0865 10.4599 13.9404 10.9998 13.6786C11.2389 13.5628 11.5635 13.655 11.709 13.8954C11.844 14.1184 11.8164 14.3899 11.5928 14.5562C10.8606 15.1009 9.92436 15.1008 9.25095 15.1008H9.23398C6.38972 15.1008 4.08398 12.795 4.08398 9.95078Z" fill="#1354FC"/>
<path d="M10.8798 11.5973C11.0751 11.402 11.3917 11.402 11.587 11.5973L13.587 13.5973C13.7822 13.7925 13.7822 14.1091 13.587 14.3044C13.3917 14.4996 13.0751 14.4996 12.8798 14.3044L10.8798 12.3044C10.6846 12.1091 10.6846 11.7925 10.8798 11.5973Z" fill="#1354FC"/>
<path fill-rule="evenodd" clip-rule="evenodd" d="M7.73368 1.81684C8.66189 1.28094 9.80548 1.28094 10.7337 1.81684L15.5279 4.58479C16.4561 5.12069 17.0279 6.11107 17.0279 7.18287V12.7188C17.0279 13.7906 16.4561 14.7809 15.5279 15.3168L10.7337 18.0848C9.80548 18.6207 8.66189 18.6207 7.73368 18.0848L2.93945 15.3168C2.01125 14.7809 1.43945 13.7906 1.43945 12.7188V7.18287C1.43945 6.11107 2.01125 5.12069 2.93945 4.58479L7.73368 1.81684ZM10.2337 2.68287L15.0279 5.45081C15.6467 5.80808 16.0279 6.46834 16.0279 7.18287V12.7188C16.0279 13.4333 15.6467 14.0935 15.0279 14.4508L10.2337 17.2188C9.61488 17.576 8.85248 17.576 8.23368 17.2188L3.43945 14.4508C2.82065 14.0935 2.43945 13.4333 2.43945 12.7188V7.18287C2.43945 6.46834 2.82065 5.80808 3.43945 5.45082L8.23368 2.68287C8.85248 2.3256 9.61488 2.3256 10.2337 2.68287Z" fill="#1354FC"/>
</svg>
