<svg width="18" height="19" viewBox="0 0 18 19" fill="none" xmlns="http://www.w3.org/2000/svg">
<path d="M9.01354 12.6296H9.00657C8.57918 12.6257 8.23541 12.2761 8.23928 11.8483C8.24063 11.6983 8.23051 11.5441 8.24625 11.3946C8.35348 10.2685 9.10103 9.5782 9.70224 9.02344C9.89465 8.84569 10.089 8.66854 10.2628 8.47217C10.463 8.24647 10.7533 7.78424 10.4479 7.22638C10.096 6.58219 9.23653 6.39986 8.56873 6.55277C7.87112 6.71227 7.61406 7.30806 7.5227 7.64874C7.41198 8.06181 6.9873 8.30686 6.57423 8.19653C6.16116 8.08581 5.91611 7.66113 6.02644 7.24806C6.33498 6.09557 7.13557 5.29227 8.22263 5.04335C9.6856 4.70926 11.159 5.30041 11.8059 6.48309C12.3444 7.46795 12.1969 8.62353 11.4207 9.49922C11.2051 9.74234 10.9747 9.95526 10.7518 10.1608C10.1962 10.6738 9.84897 11.0168 9.79012 11.5119L9.78703 11.8615C9.78393 12.2877 9.43783 12.6296 9.01354 12.6296Z" fill="#1354FC"/>
<path d="M8.46669 14.7263C8.60993 14.8696 8.81123 14.9509 9.01254 14.9509C9.21772 14.9509 9.41516 14.8696 9.56227 14.7263C9.70551 14.5792 9.7868 14.3818 9.7868 14.1766C9.7868 13.9753 9.70551 13.774 9.5584 13.6308C9.27192 13.3443 8.75317 13.3443 8.46669 13.6308C8.31958 13.774 8.23828 13.9753 8.23828 14.1766C8.23828 14.3818 8.31958 14.5831 8.46669 14.7263Z" fill="#1354FC"/>
<path fill-rule="evenodd" clip-rule="evenodd" d="M9 18.9508C13.9706 18.9508 18 14.9214 18 9.95081C18 4.98024 13.9706 0.950806 9 0.950806C4.02944 0.950806 0 4.98024 0 9.95081C0 14.9214 4.02944 18.9508 9 18.9508ZM9 16.9508C12.866 16.9508 16 13.8168 16 9.95081C16 6.08481 12.866 2.95081 9 2.95081C5.13401 2.95081 2 6.08481 2 9.95081C2 13.8168 5.13401 16.9508 9 16.9508Z" fill="#1354FC"/>
</svg>
