<svg width="18" height="19" viewBox="0 0 18 19" fill="none" xmlns="http://www.w3.org/2000/svg">
<path fill-rule="evenodd" clip-rule="evenodd" d="M9 18.9508C13.9706 18.9508 18 14.9214 18 9.95081C18 4.98024 13.9706 0.950806 9 0.950806C4.02942 0.950806 0 4.98024 0 9.95081C0 14.9214 4.02942 18.9508 9 18.9508ZM8.98718 12.6296H8.98022C8.5528 12.6257 8.20905 12.2761 8.21289 11.8483C8.21424 11.6983 8.20414 11.5441 8.21985 11.3946C8.31587 10.3862 8.97626 9.67241 9.68359 9.0163C10.1869 8.55135 10.8324 7.97697 10.4215 7.22638C9.75352 6.00365 7.83267 6.39472 7.49634 7.64874C7.38562 8.06181 6.96094 8.30686 6.54785 8.19653C6.13477 8.08581 5.88971 7.66113 6.00006 7.24806C6.30859 6.09557 7.10919 5.29227 8.19629 5.04335C9.65924 4.70926 11.1326 5.30041 11.7795 6.48309C12.3181 7.46795 12.1705 8.62354 11.3943 9.49922C11.1787 9.74234 10.9484 9.95526 10.7254 10.1608C10.1699 10.6738 9.82257 11.0168 9.76373 11.5119L9.76068 11.8615C9.75757 12.2877 9.41144 12.6296 8.98718 12.6296ZM8.98718 14.9509C8.56442 14.9509 8.21289 14.599 8.21289 14.1766C8.21289 13.9753 8.29419 13.774 8.44128 13.6308C8.72778 13.3443 9.24652 13.3443 9.53302 13.6308C9.68011 13.774 9.76141 13.9753 9.76141 14.1766C9.76141 14.6009 9.4115 14.9509 8.98718 14.9509Z" fill="#1354FC"/>
</svg>
