<svg width="18" height="19" viewBox="0 0 18 19" fill="none" xmlns="http://www.w3.org/2000/svg">
<path d="M12.348 0.950806C11.2819 0.950532 10.2374 1.25081 9.33489 1.81703C8.43236 2.38325 7.70852 3.19239 7.24676 4.1512C6.785 5.11002 6.60411 6.1795 6.72495 7.23642C6.84578 8.29334 7.26341 9.29469 7.92973 10.1251L5.91612 12.1675C5.64485 12.039 5.34112 11.9948 5.04437 12.0407C4.74761 12.0866 4.47154 12.2205 4.25198 12.4249L0.424464 16.2275C0.152627 16.4998 0 16.8685 0 17.2528C0 17.6372 0.152627 18.0059 0.424464 18.2782L0.674085 18.5273H0.699047C0.971956 18.7985 1.34146 18.9508 1.72665 18.9508C2.11185 18.9508 2.48135 18.7985 2.75426 18.5273L6.52353 14.7247C6.73692 14.5107 6.87683 14.2347 6.92317 13.9363C6.96952 13.638 6.91991 13.3327 6.78147 13.0642L8.82836 11.0218C9.53585 11.5811 10.3672 11.9633 11.2529 12.1367C12.1386 12.31 13.0531 12.2694 13.9199 12.0183C14.7867 11.7671 15.5807 11.3126 16.2356 10.6928C16.8905 10.0731 17.3873 9.30594 17.6845 8.45552C17.9817 7.60511 18.0707 6.69608 17.944 5.80435C17.8174 4.91262 17.4788 4.06407 16.9565 3.32954C16.4341 2.59501 15.7433 1.99582 14.9416 1.58201C14.1399 1.1682 13.2506 0.951775 12.348 0.950806ZM5.69146 13.8446L1.8473 17.6472C1.83022 17.6696 1.80819 17.6877 1.78294 17.7002C1.75768 17.7127 1.72988 17.7192 1.70169 17.7192C1.67351 17.7192 1.6457 17.7127 1.62044 17.7002C1.59519 17.6877 1.57316 17.6696 1.55608 17.6472H1.53112L1.2815 17.3981C1.24357 17.3576 1.22272 17.3041 1.22325 17.2487C1.22319 17.2225 1.2283 17.1965 1.23829 17.1723C1.24829 17.1481 1.26297 17.1261 1.2815 17.1075L5.11733 13.2718C5.16304 13.2553 5.21308 13.2553 5.25879 13.2718C5.31434 13.2712 5.36796 13.292 5.40856 13.3299L5.65818 13.579C5.6958 13.6112 5.72005 13.6563 5.72621 13.7054C5.73236 13.7545 5.71997 13.8041 5.69146 13.8446ZM15.5348 9.69337C14.8188 10.4254 13.8699 10.8862 12.8507 10.9968C11.8316 11.1074 10.8056 10.8609 9.94853 10.2996C9.0915 9.73829 8.45675 8.89706 8.15305 7.92004C7.84935 6.94303 7.89559 5.89104 8.28385 4.94431C8.67211 3.99758 9.37823 3.21503 10.2812 2.73074C11.1842 2.24645 12.2279 2.09055 13.2334 2.28976C14.239 2.48897 15.1438 3.03089 15.7929 3.82267C16.442 4.61445 16.7949 5.60681 16.7913 6.62974C16.7871 7.78639 16.3233 8.89417 15.5016 9.70998L15.5348 9.69337Z" fill="#1354FC"/>
</svg>
