<svg width="18" height="19" viewBox="0 0 18 19" fill="none" xmlns="http://www.w3.org/2000/svg">
<path d="M1.80054 9.63565L7.15554 11.4506C7.24184 11.4778 7.3203 11.5254 7.38428 11.5894C7.44826 11.6534 7.49586 11.7319 7.52304 11.8181L9.31554 17.1731C9.42358 17.5122 9.63649 17.8082 9.9236 18.0185C10.2107 18.2288 10.5572 18.3425 10.913 18.3431C11.2667 18.3473 11.6127 18.2391 11.901 18.0343C12.1894 17.8295 12.4054 17.5385 12.518 17.2031L17.2505 3.86065C17.3529 3.55965 17.3689 3.236 17.2968 2.92636C17.2247 2.61671 17.0674 2.33345 16.8426 2.10864C16.6177 1.88383 16.3345 1.72646 16.0248 1.65435C15.7152 1.58224 15.3915 1.59828 15.0905 1.70065L1.77054 6.41065C1.43345 6.52483 1.14061 6.7418 0.933205 7.03103C0.725801 7.32027 0.614258 7.66723 0.614258 8.02315C0.614258 8.37906 0.725801 8.72602 0.933205 9.01526C1.14061 9.3045 1.43345 9.52146 1.77054 9.63565H1.80054ZM11.483 16.8056C11.4435 16.9209 11.3685 17.0207 11.2688 17.0907C11.1692 17.1608 11.0499 17.1975 10.928 17.1956C10.806 17.1978 10.6866 17.1601 10.5878 17.0884C10.4891 17.0167 10.4163 16.9148 10.3805 16.7981L8.59554 11.4506C8.59554 11.3831 8.53554 11.3231 8.50554 11.2556L16.178 3.56815L11.483 16.8056ZM2.14554 7.46815L15.383 2.77315L7.71054 10.4456C7.64304 10.4456 7.58304 10.3781 7.51554 10.3556L2.15304 8.57065C2.03919 8.5302 1.94065 8.45549 1.87097 8.35679C1.80128 8.25808 1.76387 8.14022 1.76387 8.0194C1.76387 7.89857 1.80128 7.78071 1.87097 7.682C1.94065 7.5833 2.03919 7.50859 2.15304 7.46815H2.14554Z" fill="#1354FC"/>
</svg>
