<svg width="18" height="19" viewBox="0 0 18 19" fill="none" xmlns="http://www.w3.org/2000/svg">
<path d="M17.4371 9.38866H10.3122C10.0017 9.38866 9.74976 9.13667 9.74976 8.82617C9.74976 8.51568 10.0017 8.26369 10.3122 8.26369H17.4371C17.7476 8.26369 17.9995 8.51568 17.9995 8.82617C17.9995 9.13667 17.7476 9.38866 17.4371 9.38866Z" fill="#1354FC"/>
<path d="M14.6246 12.2011C14.4805 12.2011 14.3366 12.1463 14.227 12.0362C14.0073 11.8163 14.0073 11.4601 14.227 11.2404L16.642 8.82554L14.227 6.41055C14.0073 6.19083 14.0073 5.83461 14.227 5.61489C14.4469 5.39503 14.8031 5.39503 15.0228 5.61489L17.8353 8.4273C18.055 8.64702 18.055 9.00324 17.8353 9.22296L15.0228 12.0354C14.9126 12.1463 14.7687 12.2011 14.6246 12.2011Z" fill="#1354FC"/>
<path d="M5.99986 18.9512C5.83933 18.9512 5.68703 18.9287 5.53488 18.8814L1.02142 17.3777C0.407305 17.1632 0 16.591 0 15.9513V2.45177C0 1.62452 0.672754 0.951767 1.5 0.951767C1.66039 0.951767 1.81269 0.974288 1.96498 1.02153L6.4783 2.52523C7.09255 2.73974 7.49972 3.31197 7.49972 3.95163V17.4512C7.49972 18.2785 6.8271 18.9512 5.99986 18.9512ZM1.5 2.07673C1.29374 2.07673 1.12496 2.2455 1.12496 2.45177V15.9513C1.12496 16.1111 1.23222 16.2595 1.3852 16.3128L5.8775 17.8098C5.90977 17.8202 5.95179 17.8262 5.99986 17.8262C6.20612 17.8262 6.37475 17.6575 6.37475 17.4512V3.95163C6.37475 3.79192 6.2675 3.64347 6.11452 3.59019L1.62222 2.09321C1.58995 2.08277 1.54793 2.07673 1.5 2.07673Z" fill="#1354FC"/>
<path d="M11.4371 6.9514C11.1266 6.9514 10.8746 6.69941 10.8746 6.38891V3.01402C10.8746 2.49727 10.454 2.0765 9.93722 2.0765L1.5 2.07673C1.18951 2.07673 0.9375 1.82451 0.9375 1.51402C0.9375 1.20353 1.18951 0.951767 1.5 0.951767L9.93722 0.951538C11.075 0.951538 11.9996 1.87628 11.9996 3.01402V6.38891C11.9996 6.69941 11.7476 6.9514 11.4371 6.9514Z" fill="#1354FC"/>
<path d="M9.93748 16.7008H6.93748C6.62699 16.7008 6.375 16.4488 6.375 16.1383C6.375 15.8278 6.62699 15.5758 6.93748 15.5758H9.93748C10.4542 15.5758 10.8749 15.155 10.8749 14.6383V11.2634C10.8749 10.9529 11.1269 10.7009 11.4373 10.7009C11.7478 10.7009 11.9998 10.9529 11.9998 11.2634V14.6383C11.9998 15.776 11.0752 16.7008 9.93748 16.7008Z" fill="#1354FC"/>
</svg>
