<svg width="18" height="19" viewBox="0 0 18 19" fill="none" xmlns="http://www.w3.org/2000/svg">
<path d="M11.8976 14.5673L9.92887 16.5361C9.70949 16.7557 9.35287 16.7557 9.13349 16.5361L7.16474 14.5673C6.94509 14.3477 6.94509 13.9916 7.16474 13.7719C7.38412 13.5523 7.74074 13.5523 7.96012 13.7719L8.96868 14.7805V3.76338C8.96868 3.45288 9.22068 3.20088 9.53118 3.20088C9.84168 3.20088 10.0937 3.45288 10.0937 3.76338V14.7805L11.1022 13.7719C11.2119 13.662 11.3559 13.6071 11.4999 13.6071C11.6439 13.6071 11.7879 13.662 11.8976 13.7719C12.1173 13.9916 12.1173 14.3477 11.8976 14.5673Z" fill="#1354FC"/>
</svg>
