<svg width="18" height="19" viewBox="0 0 18 19" fill="none" xmlns="http://www.w3.org/2000/svg">
<path d="M13.1022 6.1298C13.3219 6.34945 13.678 6.34945 13.8976 6.1298C14.1173 5.91014 14.1173 5.55408 13.8976 5.33442L11.9289 3.36567C11.8189 3.2557 11.6752 3.20086 11.5312 3.20086C11.3872 3.20086 11.2435 3.2557 11.1335 3.36567L9.16474 5.33442C8.94509 5.55408 8.94509 5.91014 9.16474 6.1298C9.38412 6.34945 9.74046 6.34945 9.96012 6.1298L10.9687 5.12123V16.1384C10.9687 16.4489 11.2207 16.7009 11.5312 16.7009C11.8417 16.7009 12.0937 16.4489 12.0937 16.1384V5.12123L13.1022 6.1298Z" fill="#1354FC"/>
<path d="M6.86637 16.536L8.83512 14.5672C9.05478 14.3476 9.05478 13.9915 8.83512 13.7719C8.72543 13.6619 8.58143 13.6071 8.43743 13.6071C8.29343 13.6071 8.14943 13.6619 8.03975 13.7719L7.03118 14.7804V3.76331C7.03118 3.45281 6.77918 3.20081 6.46868 3.20081C6.15818 3.20081 5.90618 3.45281 5.90618 3.76331V14.7804L4.89762 13.7719C4.67824 13.5522 4.32162 13.5522 4.10224 13.7719C3.88259 13.9915 3.88259 14.3476 4.10224 14.5672L6.07099 16.536C6.29037 16.7556 6.64699 16.7556 6.86637 16.536Z" fill="#1354FC"/>
</svg>
