<svg width="18" height="19" viewBox="0 0 18 19" fill="none" xmlns="http://www.w3.org/2000/svg">
<path d="M11.8976 5.3343L9.92887 3.36555C9.70949 3.14589 9.35287 3.14589 9.13349 3.36555L7.16474 5.3343C6.94509 5.55395 6.94509 5.91002 7.16474 6.12967C7.38412 6.34933 7.74074 6.34933 7.96012 6.12967L8.96868 5.12111V16.1382C8.96868 16.4487 9.22068 16.7007 9.53118 16.7007C9.84168 16.7007 10.0937 16.4487 10.0937 16.1382V5.12111L11.1022 6.12967C11.2119 6.23964 11.3559 6.29449 11.4999 6.29449C11.6439 6.29449 11.7879 6.23964 11.8976 6.12967C12.1173 5.91002 12.1173 5.55395 11.8976 5.3343Z" fill="#1354FC"/>
</svg>
