<svg width="20" height="19" viewBox="0 0 20 19" fill="none" xmlns="http://www.w3.org/2000/svg">
<path fill-rule="evenodd" clip-rule="evenodd" d="M14.5212 3.36337L10.1687 1.78085C10.0603 1.74102 9.94039 1.74102 9.83207 1.78085L5.47745 3.36411C5.31038 3.42552 5.20102 3.56835 5.16299 3.73878L5.1552 4.73257V8.61143L1.12261 10.0778C0.955118 10.1394 0.846078 10.2825 0.807981 10.4533L0.807617 15.6224C0.807913 15.7929 0.8636 16.0518 1.12342 16.1461L5.47751 17.7291C5.5859 17.7692 5.70574 17.7689 5.81413 17.7289L10.0004 16.2068L14.1872 17.7292C14.2956 17.7692 14.4154 17.769 14.5238 17.7289L18.8774 16.146C19.0265 16.0919 19.1582 15.9787 19.2004 15.8258V10.6165L19.2004 10.6153C19.1996 10.4387 19.1324 10.1702 18.8774 10.0776L14.8455 8.61143V3.83301C14.8493 3.65742 14.6919 3.42433 14.5212 3.36337ZM10.0004 4.88645L7.08036 3.82474L10.0004 2.76303L12.9204 3.82474L10.0004 4.88645ZM6.13584 8.61143V4.52472L9.51004 5.75176V9.83847L6.13584 8.61143ZM10.4907 9.83847V5.75176L13.8649 4.52472V8.61143L10.4907 9.83847ZM2.72546 10.5384L5.62266 9.48474L8.54303 10.5468L5.64552 11.6002L2.72546 10.5384ZM14.3552 11.6002L11.4577 10.5468L14.3781 9.48474L17.2753 10.5384L14.3552 11.6002ZM1.781 15.3418V11.2384L5.1552 12.4655V16.5685L1.781 15.3418ZM6.13584 16.5685V12.4655L9.51004 11.2384V15.3418L6.13584 16.5685ZM10.4907 15.3418V11.2384L13.8649 12.4655V16.5685L10.4907 15.3418ZM14.8455 16.5685V12.4655L18.2197 11.2384V15.3418L14.8455 16.5685Z" fill="#1354FC"/>
</svg>
