<svg width="18" height="19" viewBox="0 0 18 19" fill="none" xmlns="http://www.w3.org/2000/svg">
<path fill-rule="evenodd" clip-rule="evenodd" d="M0 4.32581C0 2.46184 1.51104 0.950806 3.375 0.950806H14.625C16.489 0.950806 18 2.46184 18 4.32581V15.5758C18 17.4398 16.489 18.9508 14.625 18.9508H3.375C1.51104 18.9508 0 17.4398 0 15.5758V4.32581ZM6 2.07581H14.625C15.8676 2.07581 16.875 3.08317 16.875 4.32581V4.95081L6 4.95081V2.07581ZM6 5.95081L16.875 5.95081V7.95081L6 7.95081V5.95081ZM5 7.95081V5.95081H1.125V7.95081H5ZM1.125 8.95081H5V10.9508H1.125V8.95081ZM1.125 11.9508H5V13.9508H1.125V11.9508ZM1.125 14.9508V15.5758C1.125 16.8184 2.13236 17.8258 3.375 17.8258H5V14.9508H1.125ZM6 14.9508V17.8258H14.625C15.8676 17.8258 16.875 16.8184 16.875 15.5758V14.9508L6 14.9508ZM16.875 13.9508V11.9508L6 11.9508V13.9508L16.875 13.9508ZM6 10.9508L16.875 10.9508V8.95081L6 8.95081V10.9508ZM5 2.07581V4.95081L1.125 4.9508V4.32581C1.125 3.08317 2.13236 2.07581 3.375 2.07581H5Z" fill="#1354FC"/>
</svg>
