<svg width="18" height="19" viewBox="0 0 18 19" fill="none" xmlns="http://www.w3.org/2000/svg">
<path fill-rule="evenodd" clip-rule="evenodd" d="M15.8659 2.07581H14.0625V1.51331C14.0625 1.36412 14.0032 1.22105 13.8977 1.11556C13.7923 1.01007 13.6492 0.950806 13.5 0.950806C13.3508 0.950806 13.2077 1.01007 13.1023 1.11556C12.9968 1.22105 12.9375 1.36412 12.9375 1.51331V2.07581H9.5625V1.51331C9.5625 1.36412 9.50324 1.22105 9.39775 1.11556C9.29226 1.01007 9.14918 0.950806 9 0.950806C8.85082 0.950806 8.70774 1.01007 8.60225 1.11556C8.49676 1.22105 8.4375 1.36412 8.4375 1.51331V2.07581H5.0625V1.51331C5.0625 1.36412 5.00324 1.22105 4.89775 1.11556C4.79226 1.01007 4.64918 0.950806 4.5 0.950806C4.35082 0.950806 4.20774 1.01007 4.10225 1.11556C3.99676 1.22105 3.9375 1.36412 3.9375 1.51331V2.07581H2.13412C1.56839 2.0767 1.02609 2.30183 0.626057 2.70186C0.226024 3.10189 0.000892557 3.6442 0 4.20993V16.8166C0.000892557 17.3824 0.226024 17.9247 0.626057 18.3247C1.02609 18.7247 1.56839 18.9499 2.13412 18.9508H15.8659C16.4316 18.9499 16.9739 18.7247 17.3739 18.3247C17.774 17.9247 17.9991 17.3824 18 16.8166V4.20993C17.9991 3.6442 17.774 3.10189 17.3739 2.70186C16.9739 2.30183 16.4316 2.0767 15.8659 2.07581ZM16.875 16.8166C16.8741 17.084 16.7675 17.3402 16.5785 17.5292C16.3894 17.7183 16.1332 17.8249 15.8659 17.8258H2.13412C1.86676 17.8249 1.6106 17.7183 1.42155 17.5292C1.23249 17.3402 1.12589 17.084 1.125 16.8166V4.20993C1.12589 3.94257 1.23249 3.68641 1.42155 3.49735C1.6106 3.3083 1.86676 3.2017 2.13412 3.20081H3.9375V3.76331C3.9375 3.91249 3.99676 4.05556 4.10225 4.16105C4.20774 4.26654 4.35082 4.32581 4.5 4.32581C4.64918 4.32581 4.79226 4.26654 4.89775 4.16105C5.00324 4.05556 5.0625 3.91249 5.0625 3.76331V3.20081H8.4375V3.76331C8.4375 3.91249 8.49676 4.05556 8.60225 4.16105C8.70774 4.26654 8.85082 4.32581 9 4.32581C9.14918 4.32581 9.29226 4.26654 9.39775 4.16105C9.50324 4.05556 9.5625 3.91249 9.5625 3.76331V3.20081H12.9375V3.76331C12.9375 3.91249 12.9968 4.05556 13.1023 4.16105C13.2077 4.26654 13.3508 4.32581 13.5 4.32581C13.6492 4.32581 13.7923 4.26654 13.8977 4.16105C14.0032 4.05556 14.0625 3.91249 14.0625 3.76331V3.20081H15.8659C16.1332 3.2017 16.3894 3.3083 16.5785 3.49735C16.7675 3.68641 16.8741 3.94257 16.875 4.20993V16.8166ZM6.91489 7.10871L5.62508 8.39852L4.89777 7.67121C4.84588 7.61748 4.78381 7.57463 4.71518 7.54515C4.64655 7.51567 4.57274 7.50015 4.49805 7.4995C4.42336 7.49885 4.34929 7.51309 4.28017 7.54137C4.21104 7.56965 4.14823 7.61142 4.09542 7.66424C4.0426 7.71705 4.00083 7.77985 3.97255 7.84898C3.94427 7.91811 3.93004 7.99218 3.93069 8.06687C3.93133 8.14156 3.94685 8.21537 3.97633 8.284C4.00581 8.35263 4.04866 8.4147 4.10239 8.46659L5.22739 9.59159C5.33288 9.69704 5.47592 9.75628 5.62508 9.75628C5.77423 9.75628 5.91728 9.69704 6.02277 9.59159L7.71027 7.90408C7.81273 7.79799 7.86943 7.65591 7.86815 7.50842C7.86687 7.36093 7.80771 7.21985 7.70342 7.11556C7.59913 7.01127 7.45804 6.95211 7.31056 6.95083C7.16307 6.94955 7.02098 7.00624 6.91489 7.10871ZM9.5625 8.06885H13.5C13.6492 8.06885 13.7923 8.12811 13.8977 8.2336C14.0032 8.33909 14.0625 8.48216 14.0625 8.63135C14.0625 8.78053 14.0032 8.92361 13.8977 9.02909C13.7923 9.13458 13.6492 9.19385 13.5 9.19385H9.5625C9.41332 9.19385 9.27024 9.13458 9.16475 9.02909C9.05926 8.92361 9 8.78053 9 8.63135C9 8.48216 9.05926 8.33909 9.16475 8.2336C9.27024 8.12811 9.41332 8.06885 9.5625 8.06885ZM6.91489 12.1712L5.62508 13.461L4.89777 12.7337C4.84588 12.68 4.78381 12.6371 4.71518 12.6076C4.64655 12.5782 4.57274 12.5627 4.49805 12.562C4.42336 12.5614 4.34929 12.5756 4.28017 12.6039C4.21104 12.6322 4.14823 12.6739 4.09542 12.7267C4.0426 12.7795 4.00083 12.8424 3.97255 12.9115C3.94427 12.9806 3.93004 13.0547 3.93069 13.1294C3.93133 13.2041 3.94685 13.2779 3.97633 13.3465C4.00581 13.4151 4.04866 13.4772 4.10239 13.5291L5.22739 14.6541C5.33288 14.7595 5.47592 14.8188 5.62508 14.8188C5.77423 14.8188 5.91728 14.7595 6.02277 14.6541L7.71027 12.9666C7.81273 12.8605 7.86943 12.7184 7.86815 12.5709C7.86687 12.4234 7.80771 12.2823 7.70342 12.1781C7.59913 12.0738 7.45804 12.0146 7.31056 12.0133C7.16307 12.012 7.02098 12.0687 6.91489 12.1712ZM9.5625 13.1313H13.5C13.6492 13.1313 13.7923 13.1906 13.8977 13.2961C14.0032 13.4016 14.0625 13.5447 14.0625 13.6938C14.0625 13.843 14.0032 13.9861 13.8977 14.0916C13.7923 14.1971 13.6492 14.2563 13.5 14.2563H9.5625C9.41332 14.2563 9.27024 14.1971 9.16475 14.0916C9.05926 13.9861 9 13.843 9 13.6938C9 13.5447 9.05926 13.4016 9.16475 13.2961C9.27024 13.1906 9.41332 13.1313 9.5625 13.1313Z" fill="#1354FC"/>
</svg>
