<svg width="18" height="19" viewBox="0 0 18 19" fill="none" xmlns="http://www.w3.org/2000/svg">
<path d="M4.5 4.95081C4.22386 4.95081 4 5.17466 4 5.45081V14.4508C4 14.7269 4.22386 14.9508 4.5 14.9508H6C6.27614 14.9508 6.5 14.7269 6.5 14.4508C6.5 14.1747 6.27614 13.9508 6 13.9508H5.5C5.25 13.9508 5.125 13.9508 5.0625 13.8883C5 13.8258 5 13.7008 5 13.4508V6.45081C5 6.20081 5 6.07581 5.0625 6.01331C5.125 5.95081 5.25 5.95081 5.5 5.95081H12.5C12.75 5.95081 12.875 5.95081 12.9375 6.01331C13 6.07581 13 6.20081 13 6.45081V6.95081C13 7.22695 13.2239 7.45081 13.5 7.45081C13.7761 7.45081 14 7.22695 14 6.95081V5.45081C14 5.17466 13.7761 4.95081 13.5 4.95081H4.5Z" fill="#1354FC"/>
<path d="M9 14.4508C9 14.7269 9.22386 14.9508 9.5 14.9508H13.5C13.7761 14.9508 14 14.7269 14 14.4508V10.4508C14 10.1747 13.7761 9.95081 13.5 9.95081C13.2239 9.95081 13 10.1747 13 10.4508V13.4508C13 13.7008 13 13.8258 12.9375 13.8883C12.875 13.9508 12.75 13.9508 12.5 13.9508H9.5C9.22386 13.9508 9 14.1747 9 14.4508Z" fill="#1354FC"/>
<path fill-rule="evenodd" clip-rule="evenodd" d="M4.18904 0.950806C3.89814 0.950806 3.66236 1.18665 3.66236 1.47748V2.63819H2.2141C1.9232 2.63819 1.68742 2.87403 1.68742 3.16487V4.61303H0.526679C0.23578 4.61303 0 4.84887 0 5.13971C0 5.43056 0.235828 5.66639 0.526679 5.66639H1.68739V7.01856H0.526679C0.235851 7.01861 0 7.25443 0 7.54531C0 7.83621 0.235841 8.07199 0.526679 8.07199H1.68739V9.42416H0.526679C0.235841 9.42416 0 9.65994 0 9.95084C0 10.2417 0.235841 10.4775 0.526679 10.4775H1.68739V11.8297H0.526679C0.235781 11.8297 0 12.0655 0 12.3564C0 12.6472 0.235828 12.883 0.526679 12.883H1.68739V14.2352H0.526679C0.23578 14.2352 0 14.4711 0 14.7619C0 15.0528 0.235828 15.2886 0.526679 15.2886H1.68739V16.7367C1.68739 17.0276 1.92323 17.2634 2.21407 17.2634H3.66226V18.4241C3.66226 18.715 3.8981 18.9508 4.18894 18.9508C4.47979 18.9508 4.71562 18.715 4.71562 18.4241V17.2634H6.06779V18.4241C6.06779 18.715 6.30363 18.9508 6.59447 18.9508C6.88532 18.9508 7.12115 18.715 7.12115 18.4241V17.2634H8.47332V18.4241C8.47332 18.715 8.70916 18.9508 9 18.9508C9.2909 18.9508 9.52668 18.715 9.52668 18.4241V17.2634H10.8789V18.4241C10.8789 18.715 11.1147 18.9508 11.4055 18.9508C11.6964 18.9508 11.9322 18.715 11.9322 18.4241V17.2634H13.2844V18.4241C13.2844 18.715 13.5202 18.9508 13.8111 18.9508C14.1019 18.9508 14.3377 18.715 14.3377 18.4241V17.2634H15.7859C16.0768 17.2634 16.3126 17.0276 16.3126 16.7367V15.2886H17.4733C17.7642 15.2886 18 15.0527 18 14.7619C18 14.471 17.7641 14.2352 17.4733 14.2352H16.3126V12.8831H17.4733C17.7642 12.8831 18 12.6472 18 12.3564C18 12.0655 17.7641 11.8297 17.4733 11.8297H16.3126V10.4776H17.4733C17.7642 10.4776 18 10.2417 18 9.95087C18 9.66002 17.7641 9.42419 17.4733 9.42419H16.3126V8.07203L17.4733 8.07206C17.7642 8.072 18.0001 7.83632 18.0001 7.54534C18.0001 7.25444 17.7643 7.01866 17.4735 7.01866H16.3128V5.66649H17.4735C17.7644 5.66649 18.0001 5.43065 18.0001 5.13981C18.0001 4.84896 17.7643 4.61313 17.4735 4.61313H16.3128V3.16491C16.3128 2.87401 16.0769 2.63823 15.7861 2.63823H14.3379V1.47748C14.3379 1.18659 14.1021 0.950806 13.8112 0.950806C13.5204 0.950806 13.2846 1.18663 13.2846 1.47748V2.63819H11.9323V1.47748C11.9323 1.18659 11.6965 0.950806 11.4056 0.950806C11.1147 0.950806 10.879 1.18665 10.879 1.47748V2.63819H9.52678V1.47748C9.52678 1.18659 9.29094 0.950806 9.00011 0.950806C8.70921 0.950806 8.47343 1.18665 8.47343 1.47748V2.63819H7.12125V1.47748C7.12125 1.18659 6.88541 0.950806 6.59457 0.950806C6.30372 0.950806 6.06789 1.18663 6.06789 1.47748V2.63819H4.71572V1.47748C4.71572 1.18659 4.47988 0.950806 4.18904 0.950806ZM2.74081 16.2101V3.69159H15.2594L15.2593 16.2101H2.74081Z" fill="#1354FC"/>
</svg>
