<svg width="18" height="19" viewBox="0 0 18 19" fill="none" xmlns="http://www.w3.org/2000/svg">
<path fill-rule="evenodd" clip-rule="evenodd" d="M3.375 0.950806C1.51104 0.950806 0 2.46184 0 4.32581V15.5758C0 17.4398 1.51104 18.9508 3.375 18.9508H14.625C16.489 18.9508 18 17.4398 18 15.5758V4.32581C18 2.46184 16.489 0.950806 14.625 0.950806H3.375ZM14.625 2.07581H6V12.9508L16.875 12.9508V4.32581C16.875 3.08317 15.8676 2.07581 14.625 2.07581ZM16.875 13.9508L6 13.9508V17.8258H14.625C15.8676 17.8258 16.875 16.8184 16.875 15.5758V13.9508ZM5 12.9508V2.07581H3.375C2.13236 2.07581 1.125 3.08317 1.125 4.32581V12.9508H5ZM1.125 13.9508H5V17.8258H3.375C2.13236 17.8258 1.125 16.8184 1.125 15.5758V13.9508Z" fill="#1354FC"/>
</svg>
