<svg width="18" height="19" viewBox="0 0 18 19" fill="none" xmlns="http://www.w3.org/2000/svg">
<path d="M2.91078 3.10706C2.70244 2.89872 2.36465 2.89872 2.15631 3.10706C1.94797 3.3154 1.94797 3.65319 2.15631 3.86153L8.24549 9.95083L2.15626 16.0399C1.94791 16.2483 1.94791 16.5861 2.15626 16.7944C2.3646 17.0027 2.70238 17.0027 2.91072 16.7944L8.99995 10.7053L15.0891 16.7945C15.2974 17.0029 15.6352 17.0029 15.8435 16.7945C16.0519 16.5862 16.0519 16.2484 15.8435 16.0401L9.75442 9.95085L15.8437 3.86166C16.0521 3.65332 16.0521 3.31553 15.8437 3.10719C15.6354 2.89885 15.2976 2.89885 15.0893 3.10719L8.99996 9.19637L2.91078 3.10706Z" fill="#1354FC"/>
</svg>
