<svg width="18" height="19" viewBox="0 0 18 19" fill="none" xmlns="http://www.w3.org/2000/svg">
<path d="M11.4833 7.47229C11.2504 7.47229 11.0617 7.661 11.0617 7.89384V15.861C11.0617 16.0937 11.2504 16.2826 11.4833 16.2826C11.7161 16.2826 11.9048 16.0937 11.9048 15.861V7.89384C11.9048 7.661 11.7161 7.47229 11.4833 7.47229Z" fill="#1354FC"/>
<path d="M6.50906 7.47229C6.27622 7.47229 6.08751 7.661 6.08751 7.89384V15.861C6.08751 16.0937 6.27622 16.2826 6.50906 16.2826C6.7419 16.2826 6.9306 16.0937 6.9306 15.861V7.89384C6.9306 7.661 6.7419 7.47229 6.50906 7.47229Z" fill="#1354FC"/>
<path d="M2.88378 6.30958V16.6955C2.88378 17.3094 3.10887 17.8859 3.5021 18.2996C3.89351 18.7143 4.43822 18.9498 5.00829 18.9508H12.984C13.5543 18.9498 14.099 18.7143 14.4902 18.2996C14.8835 17.8859 15.1086 17.3094 15.1086 16.6955V6.30958C15.8902 6.1021 16.3967 5.34694 16.2922 4.54486C16.1874 3.74293 15.5042 3.14306 14.6954 3.14289H12.5371V2.61596C12.5396 2.17285 12.3644 1.74735 12.0507 1.43432C11.737 1.12145 11.3109 0.947238 10.8678 0.950861H7.12457C6.68146 0.947238 6.25531 1.12145 5.94162 1.43432C5.62793 1.74735 5.45273 2.17285 5.4552 2.61596V3.14289H3.29692C2.48809 3.14306 1.80489 3.74293 1.70016 4.54486C1.5956 5.34694 2.10211 6.1021 2.88378 6.30958ZM12.984 18.1077H5.00829C4.28755 18.1077 3.72686 17.4886 3.72686 16.6955V6.34663H14.2655V16.6955C14.2655 17.4886 13.7048 18.1077 12.984 18.1077ZM6.29828 2.61596C6.29548 2.39646 6.38177 2.1852 6.53754 2.03025C6.69315 1.87529 6.90491 1.79016 7.12457 1.79395H10.8678C11.0874 1.79016 11.2992 1.87529 11.4548 2.03025C11.6106 2.18503 11.6968 2.39646 11.694 2.61596V3.14289H6.29828V2.61596ZM3.29692 3.98598H14.6954C15.1145 3.98598 15.4542 4.32569 15.4542 4.74476C15.4542 5.16384 15.1145 5.50354 14.6954 5.50354H3.29692C2.87785 5.50354 2.53814 5.16384 2.53814 4.74476C2.53814 4.32569 2.87785 3.98598 3.29692 3.98598Z" fill="#1354FC"/>
<path d="M8.99617 7.47229C8.76333 7.47229 8.57462 7.661 8.57462 7.89384V15.861C8.57462 16.0937 8.76333 16.2826 8.99617 16.2826C9.22901 16.2826 9.41771 16.0937 9.41771 15.861V7.89384C9.41771 7.661 9.22901 7.47229 8.99617 7.47229Z" fill="#1354FC"/>
</svg>
