<svg width="18" height="19" viewBox="0 0 18 19" fill="none" xmlns="http://www.w3.org/2000/svg">
<path d="M9.00008 9.95079C11.4854 9.95079 13.5001 7.93608 13.5001 5.4508C13.5001 2.96552 11.4854 0.950806 9.00008 0.950806C6.5148 0.950806 4.50008 2.96552 4.50008 5.4508C4.50008 7.93608 6.5148 9.95079 9.00008 9.95079Z" fill="#1354FC"/>
<path d="M9.89999 9.95081H8.09999C5.95174 9.95081 3.89147 10.8042 2.37243 12.3232C0.853389 13.8423 0 15.9025 0 18.0508C0 18.2895 0.094821 18.5184 0.263604 18.6872C0.432386 18.856 0.661304 18.9508 0.899999 18.9508H17.1C17.3387 18.9508 17.5676 18.856 17.7364 18.6872C17.9052 18.5184 18 18.2895 18 18.0508C18 15.9025 17.1466 13.8423 15.6275 12.3232C14.1085 10.8042 12.0482 9.95081 9.89999 9.95081Z" fill="#1354FC"/>
</svg>
